<svg width="48" height="49" viewBox="0 0 48 49" fill="none" xmlns="http://www.w3.org/2000/svg">
<path d="M21.5024 6.85867L27.1282 20.3293L35.0515 11.8321C36.6657 10.1009 36.075 7.2928 33.9001 6.35871L22.0711 1.27852C20.2853 0.511549 18.2201 1.38555 17.5274 3.20148L15.0181 9.7793L21.5024 6.85867Z" fill="white" stroke="white" stroke-width="0.48844"/>
<path d="M41.7816 15.5397L30.7087 25.0528L41.2385 29.9625C43.3837 30.9627 45.8721 29.5332 46.088 27.1761L47.2641 14.3562C47.4419 12.4208 45.9727 10.7267 44.0314 10.629L37.0001 10.2752L41.7816 15.5397Z" fill="white" stroke="white" stroke-width="0.48844"/>
<path d="M39.7921 37.5089L27.323 29.9178L25.9074 41.4493C25.619 43.7987 27.7475 45.7232 30.0561 45.2006L42.612 42.3576C44.5076 41.9285 45.6646 40.0075 45.1576 38.1312L43.3214 31.3347L39.7921 37.5089Z" fill="white" stroke="white" stroke-width="0.48844"/>
<path d="M18.2832 42.4056L21.6496 28.201L10.2451 30.4181C7.92161 30.8698 6.74896 33.4889 7.95946 35.523L14.5432 46.5859C15.5372 48.2559 17.7217 48.7629 19.3495 47.701L25.2459 43.8542L18.2832 42.4056Z" fill="white" stroke="white" stroke-width="0.48844"/>
<path d="M6.97956 23.4627L21.5293 22.2749L15.8964 12.1137C14.7488 10.0435 11.8956 9.73759 10.3352 11.5174L1.84826 21.1975C0.566972 22.6589 0.760019 24.8931 2.273 26.1131L7.75349 30.5323L6.97956 23.4627Z" fill="white" stroke="white" stroke-width="0.48844"/>
</svg>
