<svg width="548" height="289" viewBox="0 0 548 289" fill="none" xmlns="http://www.w3.org/2000/svg">
<rect x="0.5" y="0.5" width="547" height="288" rx="19.5" stroke="white" stroke-opacity="0.07"/>
<path d="M234 30C234 24.4772 238.477 20 244 20H518C523.523 20 528 24.4772 528 30V90H244C238.477 90 234 85.5229 234 80V30Z" fill="#131313" fill-opacity="0.6"/>
<path d="M234.25 30C234.25 24.6152 238.615 20.25 244 20.25H518C523.385 20.25 527.75 24.6152 527.75 30V89.75H244C238.615 89.75 234.25 85.3848 234.25 80V30Z" stroke="white" stroke-opacity="0.15" stroke-width="0.5"/>
<path d="M256.647 39.46L256.413 35.41H257.889L257.673 39.46H256.647ZM253.911 39.46L253.695 35.41H255.171L254.973 39.46H253.911ZM260.003 49V36.4H264.071C265.055 36.4 265.859 36.568 266.483 36.904C267.107 37.228 267.569 37.666 267.869 38.218C268.169 38.77 268.319 39.394 268.319 40.09C268.319 40.762 268.163 41.38 267.851 41.944C267.551 42.508 267.083 42.958 266.447 43.294C265.811 43.63 264.995 43.798 263.999 43.798H261.515V49H260.003ZM266.663 49L263.891 43.366H265.583L268.445 49H266.663ZM261.515 42.61H263.963C264.923 42.61 265.625 42.376 266.069 41.908C266.525 41.44 266.753 40.84 266.753 40.108C266.753 39.364 266.531 38.776 266.087 38.344C265.655 37.9 264.941 37.678 263.945 37.678H261.515V42.61ZM274.032 49.216C273.192 49.216 272.448 49.012 271.8 48.604C271.152 48.196 270.642 47.62 270.27 46.876C269.91 46.132 269.73 45.262 269.73 44.266C269.73 43.27 269.91 42.4 270.27 41.656C270.642 40.912 271.152 40.336 271.8 39.928C272.46 39.52 273.216 39.316 274.068 39.316C274.98 39.316 275.742 39.52 276.354 39.928C276.966 40.336 277.428 40.882 277.74 41.566C278.052 42.25 278.208 43 278.208 43.816C278.208 43.936 278.208 44.056 278.208 44.176C278.208 44.296 278.202 44.44 278.19 44.608H270.864V43.438H276.732C276.708 42.514 276.438 41.812 275.922 41.332C275.418 40.84 274.788 40.594 274.032 40.594C273.528 40.594 273.06 40.72 272.628 40.972C272.208 41.212 271.866 41.572 271.602 42.052C271.338 42.532 271.206 43.132 271.206 43.852V44.356C271.206 45.148 271.338 45.814 271.602 46.354C271.866 46.882 272.208 47.278 272.628 47.542C273.06 47.806 273.528 47.938 274.032 47.938C274.704 47.938 275.232 47.812 275.616 47.56C276 47.296 276.282 46.924 276.462 46.444H277.956C277.812 46.972 277.56 47.446 277.2 47.866C276.852 48.286 276.408 48.616 275.868 48.856C275.34 49.096 274.728 49.216 274.032 49.216ZM285.019 49.216C284.443 49.216 283.945 49.132 283.525 48.964C283.117 48.784 282.769 48.562 282.481 48.298C282.205 48.034 281.977 47.776 281.797 47.524L281.671 49H280.303V36.04H281.815V41.026C282.103 40.462 282.529 40.036 283.093 39.748C283.657 39.46 284.287 39.316 284.983 39.316C285.847 39.316 286.603 39.526 287.251 39.946C287.899 40.366 288.403 40.948 288.763 41.692C289.123 42.424 289.303 43.27 289.303 44.23C289.303 45.178 289.123 46.03 288.763 46.786C288.403 47.542 287.899 48.136 287.251 48.568C286.615 49 285.871 49.216 285.019 49.216ZM284.821 47.902C285.385 47.902 285.883 47.758 286.315 47.47C286.759 47.17 287.107 46.75 287.359 46.21C287.623 45.658 287.755 45.01 287.755 44.266C287.755 43.522 287.623 42.88 287.359 42.34C287.107 41.788 286.759 41.368 286.315 41.08C285.883 40.78 285.385 40.63 284.821 40.63C284.221 40.63 283.699 40.78 283.255 41.08C282.811 41.368 282.469 41.788 282.229 42.34C281.989 42.88 281.869 43.522 281.869 44.266C281.869 45.01 281.989 45.658 282.229 46.21C282.469 46.75 282.811 47.17 283.255 47.47C283.699 47.758 284.221 47.902 284.821 47.902ZM294.453 49.216C293.733 49.216 293.133 49.084 292.653 48.82C292.173 48.544 291.813 48.184 291.573 47.74C291.333 47.284 291.213 46.798 291.213 46.282C291.213 45.658 291.369 45.13 291.681 44.698C292.005 44.254 292.455 43.918 293.031 43.69C293.607 43.462 294.279 43.348 295.047 43.348H297.405C297.405 42.736 297.333 42.226 297.189 41.818C297.045 41.41 296.811 41.104 296.487 40.9C296.163 40.696 295.731 40.594 295.191 40.594C294.651 40.594 294.189 40.732 293.805 41.008C293.421 41.272 293.181 41.668 293.085 42.196H291.537C291.609 41.572 291.819 41.05 292.167 40.63C292.515 40.198 292.953 39.874 293.481 39.658C294.021 39.43 294.591 39.316 295.191 39.316C296.043 39.316 296.745 39.472 297.297 39.784C297.849 40.084 298.257 40.51 298.521 41.062C298.785 41.602 298.917 42.244 298.917 42.988V49H297.567L297.477 47.38C297.357 47.632 297.201 47.872 297.009 48.1C296.829 48.316 296.613 48.508 296.361 48.676C296.109 48.844 295.821 48.976 295.497 49.072C295.185 49.168 294.837 49.216 294.453 49.216ZM294.669 47.938C295.065 47.938 295.431 47.848 295.767 47.668C296.103 47.488 296.391 47.248 296.631 46.948C296.883 46.636 297.075 46.288 297.207 45.904C297.339 45.52 297.405 45.118 297.405 44.698V44.518H295.173C294.609 44.518 294.147 44.59 293.787 44.734C293.439 44.878 293.187 45.082 293.031 45.346C292.875 45.598 292.797 45.886 292.797 46.21C292.797 46.558 292.869 46.864 293.013 47.128C293.157 47.38 293.367 47.578 293.643 47.722C293.931 47.866 294.273 47.938 294.669 47.938ZM301.415 49V36.04H302.927V49H301.415ZM308.427 49.216C307.707 49.216 307.107 49.084 306.627 48.82C306.147 48.544 305.787 48.184 305.547 47.74C305.307 47.284 305.187 46.798 305.187 46.282C305.187 45.658 305.343 45.13 305.655 44.698C305.979 44.254 306.429 43.918 307.005 43.69C307.581 43.462 308.253 43.348 309.021 43.348H311.379C311.379 42.736 311.307 42.226 311.163 41.818C311.019 41.41 310.785 41.104 310.461 40.9C310.137 40.696 309.705 40.594 309.165 40.594C308.625 40.594 308.163 40.732 307.779 41.008C307.395 41.272 307.155 41.668 307.059 42.196H305.511C305.583 41.572 305.793 41.05 306.141 40.63C306.489 40.198 306.927 39.874 307.455 39.658C307.995 39.43 308.565 39.316 309.165 39.316C310.017 39.316 310.719 39.472 311.271 39.784C311.823 40.084 312.231 40.51 312.495 41.062C312.759 41.602 312.891 42.244 312.891 42.988V49H311.541L311.451 47.38C311.331 47.632 311.175 47.872 310.983 48.1C310.803 48.316 310.587 48.508 310.335 48.676C310.083 48.844 309.795 48.976 309.471 49.072C309.159 49.168 308.811 49.216 308.427 49.216ZM308.643 47.938C309.039 47.938 309.405 47.848 309.741 47.668C310.077 47.488 310.365 47.248 310.605 46.948C310.857 46.636 311.049 46.288 311.181 45.904C311.313 45.52 311.379 45.118 311.379 44.698V44.518H309.147C308.583 44.518 308.121 44.59 307.761 44.734C307.413 44.878 307.161 45.082 307.005 45.346C306.849 45.598 306.771 45.886 306.771 46.21C306.771 46.558 306.843 46.864 306.987 47.128C307.131 47.38 307.341 47.578 307.617 47.722C307.905 47.866 308.247 47.938 308.643 47.938ZM315.389 49V39.532H316.757L316.829 41.026C317.105 40.486 317.501 40.066 318.017 39.766C318.545 39.466 319.151 39.316 319.835 39.316C320.531 39.316 321.137 39.448 321.653 39.712C322.169 39.976 322.571 40.378 322.859 40.918C323.147 41.458 323.291 42.142 323.291 42.97V49H321.779V43.132C321.779 42.292 321.569 41.662 321.149 41.242C320.741 40.822 320.189 40.612 319.493 40.612C319.025 40.612 318.593 40.726 318.197 40.954C317.801 41.17 317.483 41.494 317.243 41.926C317.015 42.358 316.901 42.886 316.901 43.51V49H315.389ZM329.882 49.216C329.018 49.216 328.25 49.012 327.578 48.604C326.906 48.184 326.378 47.602 325.994 46.858C325.61 46.114 325.418 45.25 325.418 44.266C325.418 43.27 325.61 42.406 325.994 41.674C326.378 40.93 326.906 40.354 327.578 39.946C328.25 39.526 329.018 39.316 329.882 39.316C330.962 39.316 331.862 39.604 332.582 40.18C333.314 40.756 333.782 41.53 333.986 42.502H332.438C332.306 41.902 332 41.44 331.52 41.116C331.052 40.78 330.5 40.612 329.864 40.612C329.312 40.612 328.814 40.75 328.37 41.026C327.938 41.302 327.596 41.71 327.344 42.25C327.092 42.79 326.966 43.462 326.966 44.266C326.966 44.866 327.038 45.4 327.182 45.868C327.326 46.324 327.524 46.708 327.776 47.02C328.04 47.32 328.346 47.548 328.694 47.704C329.054 47.86 329.444 47.938 329.864 47.938C330.296 47.938 330.686 47.866 331.034 47.722C331.394 47.566 331.694 47.344 331.934 47.056C332.186 46.768 332.354 46.426 332.438 46.03H333.986C333.794 46.978 333.326 47.746 332.582 48.334C331.85 48.922 330.95 49.216 329.882 49.216ZM340.108 49.216C339.268 49.216 338.524 49.012 337.876 48.604C337.228 48.196 336.718 47.62 336.346 46.876C335.986 46.132 335.806 45.262 335.806 44.266C335.806 43.27 335.986 42.4 336.346 41.656C336.718 40.912 337.228 40.336 337.876 39.928C338.536 39.52 339.292 39.316 340.144 39.316C341.056 39.316 341.818 39.52 342.43 39.928C343.042 40.336 343.504 40.882 343.816 41.566C344.128 42.25 344.284 43 344.284 43.816C344.284 43.936 344.284 44.056 344.284 44.176C344.284 44.296 344.278 44.44 344.266 44.608H336.94V43.438H342.808C342.784 42.514 342.514 41.812 341.998 41.332C341.494 40.84 340.864 40.594 340.108 40.594C339.604 40.594 339.136 40.72 338.704 40.972C338.284 41.212 337.942 41.572 337.678 42.052C337.414 42.532 337.282 43.132 337.282 43.852V44.356C337.282 45.148 337.414 45.814 337.678 46.354C337.942 46.882 338.284 47.278 338.704 47.542C339.136 47.806 339.604 47.938 340.108 47.938C340.78 47.938 341.308 47.812 341.692 47.56C342.076 47.296 342.358 46.924 342.538 46.444H344.032C343.888 46.972 343.636 47.446 343.276 47.866C342.928 48.286 342.484 48.616 341.944 48.856C341.416 49.096 340.804 49.216 340.108 49.216ZM351.214 49V39.532H352.582L352.654 40.828C352.942 40.36 353.332 39.994 353.824 39.73C354.316 39.454 354.832 39.316 355.372 39.316C355.828 39.316 356.236 39.382 356.596 39.514C356.968 39.634 357.292 39.826 357.568 40.09C357.844 40.342 358.066 40.66 358.234 41.044C358.546 40.48 358.966 40.054 359.494 39.766C360.034 39.466 360.598 39.316 361.186 39.316C361.882 39.316 362.476 39.454 362.968 39.73C363.472 39.994 363.856 40.402 364.12 40.954C364.396 41.494 364.534 42.172 364.534 42.988V49H363.04V43.15C363.04 42.298 362.854 41.662 362.482 41.242C362.11 40.822 361.606 40.612 360.97 40.612C360.538 40.612 360.142 40.726 359.782 40.954C359.434 41.182 359.152 41.518 358.936 41.962C358.732 42.406 358.63 42.946 358.63 43.582V49H357.118V43.15C357.118 42.298 356.932 41.662 356.56 41.242C356.188 40.822 355.69 40.612 355.066 40.612C354.646 40.612 354.256 40.726 353.896 40.954C353.548 41.182 353.266 41.518 353.05 41.962C352.834 42.406 352.726 42.946 352.726 43.582V49H351.214ZM367.832 52.96L369.974 47.992H369.452L365.906 39.532H367.544L370.478 46.822L373.538 39.532H375.104L369.398 52.96H367.832ZM381.624 52.96V39.532H382.992L383.118 41.008C383.31 40.696 383.55 40.414 383.838 40.162C384.138 39.91 384.492 39.706 384.9 39.55C385.32 39.394 385.8 39.316 386.34 39.316C387.192 39.316 387.936 39.532 388.572 39.964C389.22 40.396 389.724 40.984 390.084 41.728C390.444 42.472 390.624 43.324 390.624 44.284C390.624 45.232 390.444 46.078 390.084 46.822C389.724 47.566 389.22 48.154 388.572 48.586C387.924 49.006 387.174 49.216 386.322 49.216C385.59 49.216 384.948 49.066 384.396 48.766C383.844 48.466 383.424 48.046 383.136 47.506V52.96H381.624ZM386.142 47.902C386.706 47.902 387.204 47.758 387.636 47.47C388.08 47.17 388.428 46.75 388.68 46.21C388.944 45.658 389.076 45.01 389.076 44.266C389.076 43.522 388.944 42.88 388.68 42.34C388.428 41.788 388.08 41.368 387.636 41.08C387.204 40.78 386.706 40.63 386.142 40.63C385.542 40.63 385.02 40.78 384.576 41.08C384.132 41.368 383.79 41.788 383.55 42.34C383.31 42.88 383.19 43.522 383.19 44.266C383.19 45.01 383.31 45.658 383.55 46.21C383.79 46.75 384.132 47.17 384.576 47.47C385.02 47.758 385.542 47.902 386.142 47.902ZM396.889 49.216C396.013 49.216 395.239 49.012 394.567 48.604C393.895 48.196 393.373 47.62 393.001 46.876C392.629 46.132 392.443 45.262 392.443 44.266C392.443 43.258 392.629 42.388 393.001 41.656C393.385 40.912 393.913 40.336 394.585 39.928C395.269 39.52 396.049 39.316 396.925 39.316C397.813 39.316 398.587 39.52 399.247 39.928C399.919 40.336 400.441 40.912 400.813 41.656C401.185 42.388 401.371 43.258 401.371 44.266C401.371 45.262 401.179 46.132 400.795 46.876C400.423 47.62 399.901 48.196 399.229 48.604C398.557 49.012 397.777 49.216 396.889 49.216ZM396.889 47.92C397.441 47.92 397.939 47.788 398.383 47.524C398.827 47.248 399.175 46.84 399.427 46.3C399.691 45.748 399.823 45.07 399.823 44.266C399.823 43.45 399.697 42.772 399.445 42.232C399.193 41.692 398.845 41.29 398.401 41.026C397.969 40.75 397.477 40.612 396.925 40.612C396.385 40.612 395.893 40.75 395.449 41.026C395.005 41.29 394.651 41.692 394.387 42.232C394.123 42.772 393.991 43.45 393.991 44.266C393.991 45.07 394.117 45.748 394.369 46.3C394.633 46.84 394.981 47.248 395.413 47.524C395.857 47.788 396.349 47.92 396.889 47.92ZM403.561 49V39.532H404.929L405.037 41.26C405.253 40.828 405.535 40.468 405.883 40.18C406.231 39.892 406.651 39.676 407.143 39.532C407.647 39.388 408.211 39.316 408.835 39.316V40.9H407.899C407.539 40.9 407.191 40.948 406.855 41.044C406.519 41.14 406.213 41.296 405.937 41.512C405.673 41.728 405.463 42.022 405.307 42.394C405.151 42.766 405.073 43.234 405.073 43.798V49H403.561ZM414.247 49C413.707 49 413.239 48.916 412.843 48.748C412.447 48.58 412.141 48.298 411.925 47.902C411.721 47.494 411.619 46.948 411.619 46.264V40.81H409.963V39.532H411.619L411.817 37.174H413.131V39.532H415.813V40.81H413.131V46.264C413.131 46.828 413.245 47.212 413.473 47.416C413.701 47.608 414.103 47.704 414.679 47.704H415.777V49H414.247ZM418.481 49V38.524C418.481 37.948 418.577 37.48 418.769 37.12C418.961 36.748 419.243 36.478 419.615 36.31C419.999 36.13 420.467 36.04 421.019 36.04H422.405V37.336H421.271C420.815 37.336 420.485 37.432 420.281 37.624C420.089 37.804 419.993 38.122 419.993 38.578V49H418.481ZM417.005 40.81V39.532H422.513V40.81H417.005ZM428.108 49.216C427.232 49.216 426.458 49.012 425.786 48.604C425.114 48.196 424.592 47.62 424.22 46.876C423.848 46.132 423.662 45.262 423.662 44.266C423.662 43.258 423.848 42.388 424.22 41.656C424.604 40.912 425.132 40.336 425.804 39.928C426.488 39.52 427.268 39.316 428.144 39.316C429.032 39.316 429.806 39.52 430.466 39.928C431.138 40.336 431.66 40.912 432.032 41.656C432.404 42.388 432.59 43.258 432.59 44.266C432.59 45.262 432.398 46.132 432.014 46.876C431.642 47.62 431.12 48.196 430.448 48.604C429.776 49.012 428.996 49.216 428.108 49.216ZM428.108 47.92C428.66 47.92 429.158 47.788 429.602 47.524C430.046 47.248 430.394 46.84 430.646 46.3C430.91 45.748 431.042 45.07 431.042 44.266C431.042 43.45 430.916 42.772 430.664 42.232C430.412 41.692 430.064 41.29 429.62 41.026C429.188 40.75 428.696 40.612 428.144 40.612C427.604 40.612 427.112 40.75 426.668 41.026C426.224 41.29 425.87 41.692 425.606 42.232C425.342 42.772 425.21 43.45 425.21 44.266C425.21 45.07 425.336 45.748 425.588 46.3C425.852 46.84 426.2 47.248 426.632 47.524C427.076 47.788 427.568 47.92 428.108 47.92ZM434.78 49V36.04H436.292V49H434.78ZM438.985 49V39.532H440.497V49H438.985ZM439.741 37.732C439.441 37.732 439.189 37.636 438.985 37.444C438.793 37.24 438.697 36.988 438.697 36.688C438.697 36.388 438.793 36.148 438.985 35.968C439.189 35.776 439.441 35.68 439.741 35.68C440.029 35.68 440.275 35.776 440.479 35.968C440.683 36.148 440.785 36.388 440.785 36.688C440.785 36.988 440.683 37.24 440.479 37.444C440.275 37.636 440.029 37.732 439.741 37.732ZM447.25 49.216C446.374 49.216 445.6 49.012 444.928 48.604C444.256 48.196 443.734 47.62 443.362 46.876C442.99 46.132 442.804 45.262 442.804 44.266C442.804 43.258 442.99 42.388 443.362 41.656C443.746 40.912 444.274 40.336 444.946 39.928C445.63 39.52 446.41 39.316 447.286 39.316C448.174 39.316 448.948 39.52 449.608 39.928C450.28 40.336 450.802 40.912 451.174 41.656C451.546 42.388 451.732 43.258 451.732 44.266C451.732 45.262 451.54 46.132 451.156 46.876C450.784 47.62 450.262 48.196 449.59 48.604C448.918 49.012 448.138 49.216 447.25 49.216ZM447.25 47.92C447.802 47.92 448.3 47.788 448.744 47.524C449.188 47.248 449.536 46.84 449.788 46.3C450.052 45.748 450.184 45.07 450.184 44.266C450.184 43.45 450.058 42.772 449.806 42.232C449.554 41.692 449.206 41.29 448.762 41.026C448.33 40.75 447.838 40.612 447.286 40.612C446.746 40.612 446.254 40.75 445.81 41.026C445.366 41.29 445.012 41.692 444.748 42.232C444.484 42.772 444.352 43.45 444.352 44.266C444.352 45.07 444.478 45.748 444.73 46.3C444.994 46.84 445.342 47.248 445.774 47.524C446.218 47.788 446.71 47.92 447.25 47.92ZM462.429 49C461.889 49 461.421 48.916 461.025 48.748C460.629 48.58 460.323 48.298 460.107 47.902C459.903 47.494 459.801 46.948 459.801 46.264V40.81H458.145V39.532H459.801L459.999 37.174H461.313V39.532H463.995V40.81H461.313V46.264C461.313 46.828 461.427 47.212 461.655 47.416C461.883 47.608 462.285 47.704 462.861 47.704H463.959V49H462.429ZM469.891 49.216C469.015 49.216 468.241 49.012 467.569 48.604C466.897 48.196 466.375 47.62 466.003 46.876C465.631 46.132 465.445 45.262 465.445 44.266C465.445 43.258 465.631 42.388 466.003 41.656C466.387 40.912 466.915 40.336 467.587 39.928C468.271 39.52 469.051 39.316 469.927 39.316C470.815 39.316 471.589 39.52 472.249 39.928C472.921 40.336 473.443 40.912 473.815 41.656C474.187 42.388 474.373 43.258 474.373 44.266C474.373 45.262 474.181 46.132 473.797 46.876C473.425 47.62 472.903 48.196 472.231 48.604C471.559 49.012 470.779 49.216 469.891 49.216ZM469.891 47.92C470.443 47.92 470.941 47.788 471.385 47.524C471.829 47.248 472.177 46.84 472.429 46.3C472.693 45.748 472.825 45.07 472.825 44.266C472.825 43.45 472.699 42.772 472.447 42.232C472.195 41.692 471.847 41.29 471.403 41.026C470.971 40.75 470.479 40.612 469.927 40.612C469.387 40.612 468.895 40.75 468.451 41.026C468.007 41.29 467.653 41.692 467.389 42.232C467.125 42.772 466.993 43.45 466.993 44.266C466.993 45.07 467.119 45.748 467.371 46.3C467.635 46.84 467.983 47.248 468.415 47.524C468.859 47.788 469.351 47.92 469.891 47.92ZM485.969 49.216C485.069 49.216 484.307 49.048 483.683 48.712C483.071 48.376 482.579 47.926 482.207 47.362C481.847 46.786 481.583 46.138 481.415 45.418C481.247 44.698 481.163 43.96 481.163 43.204C481.163 41.812 481.349 40.594 481.721 39.55C482.105 38.494 482.657 37.672 483.377 37.084C484.097 36.484 484.967 36.184 485.987 36.184C486.779 36.184 487.457 36.334 488.021 36.634C488.597 36.934 489.053 37.336 489.389 37.84C489.725 38.332 489.929 38.884 490.001 39.496H488.597C488.477 38.86 488.183 38.368 487.715 38.02C487.259 37.672 486.677 37.498 485.969 37.498C485.333 37.498 484.763 37.696 484.259 38.092C483.767 38.488 483.377 39.088 483.089 39.892C482.801 40.684 482.639 41.698 482.603 42.934C482.603 42.958 482.603 42.982 482.603 43.006C482.603 43.03 482.603 43.054 482.603 43.078C482.771 42.694 483.023 42.34 483.359 42.016C483.695 41.692 484.103 41.434 484.583 41.242C485.063 41.038 485.591 40.936 486.167 40.936C486.875 40.936 487.529 41.104 488.129 41.44C488.741 41.776 489.233 42.25 489.605 42.862C489.977 43.462 490.163 44.17 490.163 44.986C490.163 45.694 489.989 46.372 489.641 47.02C489.305 47.668 488.825 48.196 488.201 48.604C487.577 49.012 486.833 49.216 485.969 49.216ZM485.861 47.884C486.389 47.884 486.857 47.764 487.265 47.524C487.685 47.284 488.015 46.954 488.255 46.534C488.507 46.102 488.633 45.61 488.633 45.058C488.633 44.494 488.507 44.002 488.255 43.582C488.015 43.162 487.685 42.838 487.265 42.61C486.857 42.37 486.389 42.25 485.861 42.25C485.321 42.25 484.835 42.376 484.403 42.628C483.971 42.868 483.629 43.204 483.377 43.636C483.125 44.056 482.999 44.536 482.999 45.076C482.999 45.628 483.125 46.12 483.377 46.552C483.629 46.972 483.971 47.302 484.403 47.542C484.835 47.77 485.321 47.884 485.861 47.884ZM497.274 49.216C496.23 49.216 495.33 48.946 494.574 48.406C493.83 47.854 493.254 47.092 492.846 46.12C492.438 45.136 492.234 43.996 492.234 42.7C492.234 41.404 492.438 40.27 492.846 39.298C493.254 38.314 493.83 37.552 494.574 37.012C495.33 36.46 496.23 36.184 497.274 36.184C498.318 36.184 499.212 36.46 499.956 37.012C500.7 37.552 501.27 38.314 501.666 39.298C502.074 40.27 502.278 41.404 502.278 42.7C502.278 43.996 502.074 45.136 501.666 46.12C501.27 47.092 500.7 47.854 499.956 48.406C499.212 48.946 498.318 49.216 497.274 49.216ZM497.274 47.884C497.934 47.884 498.522 47.68 499.038 47.272C499.554 46.852 499.962 46.258 500.262 45.49C500.574 44.71 500.73 43.78 500.73 42.7C500.73 41.608 500.574 40.678 500.262 39.91C499.962 39.142 499.554 38.554 499.038 38.146C498.522 37.738 497.934 37.534 497.274 37.534C496.602 37.534 496.002 37.738 495.474 38.146C494.946 38.554 494.532 39.142 494.232 39.91C493.932 40.678 493.782 41.608 493.782 42.7C493.782 43.78 493.932 44.71 494.232 45.49C494.532 46.258 494.946 46.852 495.474 47.272C496.002 47.68 496.602 47.884 497.274 47.884ZM506.116 49L513.442 36.4H514.954L507.628 49H506.116ZM514.342 49.216C513.802 49.216 513.316 49.096 512.884 48.856C512.452 48.604 512.104 48.25 511.84 47.794C511.588 47.338 511.462 46.804 511.462 46.192C511.462 45.568 511.588 45.034 511.84 44.59C512.104 44.134 512.452 43.786 512.884 43.546C513.316 43.294 513.802 43.168 514.342 43.168C514.894 43.168 515.38 43.294 515.8 43.546C516.232 43.786 516.574 44.134 516.826 44.59C517.078 45.034 517.204 45.568 517.204 46.192C517.204 46.804 517.078 47.338 516.826 47.794C516.574 48.25 516.232 48.604 515.8 48.856C515.368 49.096 514.882 49.216 514.342 49.216ZM514.324 48.046C514.612 48.046 514.876 47.98 515.116 47.848C515.356 47.704 515.548 47.494 515.692 47.218C515.848 46.942 515.926 46.6 515.926 46.192C515.926 45.772 515.854 45.424 515.71 45.148C515.566 44.872 515.374 44.668 515.134 44.536C514.894 44.392 514.63 44.32 514.342 44.32C514.066 44.32 513.802 44.392 513.55 44.536C513.31 44.668 513.112 44.872 512.956 45.148C512.812 45.424 512.74 45.772 512.74 46.192C512.74 46.6 512.812 46.942 512.956 47.218C513.112 47.494 513.31 47.704 513.55 47.848C513.79 47.98 514.048 48.046 514.324 48.046ZM506.854 42.25C506.314 42.25 505.828 42.13 505.396 41.89C504.964 41.638 504.616 41.284 504.352 40.828C504.1 40.372 503.974 39.838 503.974 39.226C503.974 38.602 504.1 38.068 504.352 37.624C504.616 37.168 504.964 36.82 505.396 36.58C505.84 36.328 506.332 36.202 506.872 36.202C507.412 36.202 507.898 36.328 508.33 36.58C508.762 36.82 509.104 37.168 509.356 37.624C509.608 38.068 509.734 38.602 509.734 39.226C509.734 39.838 509.608 40.372 509.356 40.828C509.104 41.284 508.756 41.638 508.312 41.89C507.88 42.13 507.394 42.25 506.854 42.25ZM506.854 41.08C507.142 41.08 507.406 41.014 507.646 40.882C507.886 40.738 508.078 40.528 508.222 40.252C508.366 39.976 508.438 39.634 508.438 39.226C508.438 38.806 508.366 38.458 508.222 38.182C508.078 37.894 507.886 37.684 507.646 37.552C507.406 37.408 507.148 37.336 506.872 37.336C506.596 37.336 506.332 37.408 506.08 37.552C505.828 37.684 505.624 37.894 505.468 38.182C505.324 38.458 505.252 38.806 505.252 39.226C505.252 39.634 505.324 39.976 505.468 40.252C505.624 40.528 505.822 40.738 506.062 40.882C506.314 41.014 506.578 41.08 506.854 41.08ZM416.843 74.216C415.991 74.216 415.283 74.09 414.719 73.838C414.167 73.574 413.747 73.214 413.459 72.758C413.171 72.29 412.997 71.75 412.937 71.138H414.485C414.533 71.462 414.641 71.762 414.809 72.038C414.989 72.302 415.247 72.518 415.583 72.686C415.919 72.854 416.345 72.938 416.861 72.938C417.269 72.938 417.617 72.878 417.905 72.758C418.193 72.626 418.409 72.446 418.553 72.218C418.709 71.99 418.787 71.726 418.787 71.426C418.787 71.03 418.697 70.724 418.517 70.508C418.349 70.28 418.097 70.112 417.761 70.004C417.437 69.884 417.029 69.794 416.537 69.734C416.009 69.662 415.541 69.56 415.133 69.428C414.725 69.296 414.377 69.122 414.089 68.906C413.813 68.69 413.603 68.42 413.459 68.096C413.315 67.772 413.243 67.388 413.243 66.944C413.243 66.428 413.381 65.972 413.657 65.576C413.933 65.18 414.323 64.874 414.827 64.658C415.343 64.43 415.949 64.316 416.645 64.316C417.665 64.316 418.469 64.55 419.057 65.018C419.657 65.486 420.011 66.152 420.119 67.016H418.625C418.565 66.572 418.361 66.224 418.013 65.972C417.665 65.72 417.203 65.594 416.627 65.594C416.015 65.594 415.553 65.708 415.241 65.936C414.929 66.164 414.773 66.464 414.773 66.836C414.773 67.112 414.839 67.364 414.971 67.592C415.115 67.808 415.355 67.994 415.691 68.15C416.027 68.294 416.477 68.402 417.041 68.474C417.749 68.558 418.349 68.696 418.841 68.888C419.333 69.068 419.705 69.35 419.957 69.734C420.221 70.118 420.347 70.64 420.335 71.3C420.335 71.924 420.185 72.452 419.885 72.884C419.597 73.316 419.189 73.646 418.661 73.874C418.145 74.102 417.539 74.216 416.843 74.216ZM425.848 74C425.308 74 424.84 73.916 424.444 73.748C424.048 73.58 423.742 73.298 423.526 72.902C423.322 72.494 423.22 71.948 423.22 71.264V65.81H421.564V64.532H423.22L423.418 62.174H424.732V64.532H427.414V65.81H424.732V71.264C424.732 71.828 424.846 72.212 425.074 72.416C425.302 72.608 425.704 72.704 426.28 72.704H427.378V74H425.848ZM432.441 74.216C431.721 74.216 431.121 74.084 430.641 73.82C430.161 73.544 429.801 73.184 429.561 72.74C429.321 72.284 429.201 71.798 429.201 71.282C429.201 70.658 429.357 70.13 429.669 69.698C429.993 69.254 430.443 68.918 431.019 68.69C431.595 68.462 432.267 68.348 433.035 68.348H435.393C435.393 67.736 435.321 67.226 435.177 66.818C435.033 66.41 434.799 66.104 434.475 65.9C434.151 65.696 433.719 65.594 433.179 65.594C432.639 65.594 432.177 65.732 431.793 66.008C431.409 66.272 431.169 66.668 431.073 67.196H429.525C429.597 66.572 429.807 66.05 430.155 65.63C430.503 65.198 430.941 64.874 431.469 64.658C432.009 64.43 432.579 64.316 433.179 64.316C434.031 64.316 434.733 64.472 435.285 64.784C435.837 65.084 436.245 65.51 436.509 66.062C436.773 66.602 436.905 67.244 436.905 67.988V74H435.555L435.465 72.38C435.345 72.632 435.189 72.872 434.997 73.1C434.817 73.316 434.601 73.508 434.349 73.676C434.097 73.844 433.809 73.976 433.485 74.072C433.173 74.168 432.825 74.216 432.441 74.216ZM432.657 72.938C433.053 72.938 433.419 72.848 433.755 72.668C434.091 72.488 434.379 72.248 434.619 71.948C434.871 71.636 435.063 71.288 435.195 70.904C435.327 70.52 435.393 70.118 435.393 69.698V69.518H433.161C432.597 69.518 432.135 69.59 431.775 69.734C431.427 69.878 431.175 70.082 431.019 70.346C430.863 70.598 430.785 70.886 430.785 71.21C430.785 71.558 430.857 71.864 431.001 72.128C431.145 72.38 431.355 72.578 431.631 72.722C431.919 72.866 432.261 72.938 432.657 72.938ZM444.119 74.216C443.543 74.216 443.045 74.132 442.625 73.964C442.217 73.784 441.869 73.562 441.581 73.298C441.305 73.034 441.077 72.776 440.897 72.524L440.771 74H439.403V61.04H440.915V66.026C441.203 65.462 441.629 65.036 442.193 64.748C442.757 64.46 443.387 64.316 444.083 64.316C444.947 64.316 445.703 64.526 446.351 64.946C446.999 65.366 447.503 65.948 447.863 66.692C448.223 67.424 448.403 68.27 448.403 69.23C448.403 70.178 448.223 71.03 447.863 71.786C447.503 72.542 446.999 73.136 446.351 73.568C445.715 74 444.971 74.216 444.119 74.216ZM443.921 72.902C444.485 72.902 444.983 72.758 445.415 72.47C445.859 72.17 446.207 71.75 446.459 71.21C446.723 70.658 446.855 70.01 446.855 69.266C446.855 68.522 446.723 67.88 446.459 67.34C446.207 66.788 445.859 66.368 445.415 66.08C444.983 65.78 444.485 65.63 443.921 65.63C443.321 65.63 442.799 65.78 442.355 66.08C441.911 66.368 441.569 66.788 441.329 67.34C441.089 67.88 440.969 68.522 440.969 69.266C440.969 70.01 441.089 70.658 441.329 71.21C441.569 71.75 441.911 72.17 442.355 72.47C442.799 72.758 443.321 72.902 443.921 72.902ZM450.6 74V61.04H452.112V74H450.6ZM458.585 74.216C457.745 74.216 457.001 74.012 456.353 73.604C455.705 73.196 455.195 72.62 454.823 71.876C454.463 71.132 454.283 70.262 454.283 69.266C454.283 68.27 454.463 67.4 454.823 66.656C455.195 65.912 455.705 65.336 456.353 64.928C457.013 64.52 457.769 64.316 458.621 64.316C459.533 64.316 460.295 64.52 460.907 64.928C461.519 65.336 461.981 65.882 462.293 66.566C462.605 67.25 462.761 68 462.761 68.816C462.761 68.936 462.761 69.056 462.761 69.176C462.761 69.296 462.755 69.44 462.743 69.608H455.417V68.438H461.285C461.261 67.514 460.991 66.812 460.475 66.332C459.971 65.84 459.341 65.594 458.585 65.594C458.081 65.594 457.613 65.72 457.181 65.972C456.761 66.212 456.419 66.572 456.155 67.052C455.891 67.532 455.759 68.132 455.759 68.852V69.356C455.759 70.148 455.891 70.814 456.155 71.354C456.419 71.882 456.761 72.278 457.181 72.542C457.613 72.806 458.081 72.938 458.585 72.938C459.257 72.938 459.785 72.812 460.169 72.56C460.553 72.296 460.835 71.924 461.015 71.444H462.509C462.365 71.972 462.113 72.446 461.753 72.866C461.405 73.286 460.961 73.616 460.421 73.856C459.893 74.096 459.281 74.216 458.585 74.216ZM468.942 74.216C468.078 74.216 467.31 74.012 466.638 73.604C465.966 73.184 465.438 72.602 465.054 71.858C464.67 71.114 464.478 70.25 464.478 69.266C464.478 68.27 464.67 67.406 465.054 66.674C465.438 65.93 465.966 65.354 466.638 64.946C467.31 64.526 468.078 64.316 468.942 64.316C470.022 64.316 470.922 64.604 471.642 65.18C472.374 65.756 472.842 66.53 473.046 67.502H471.498C471.366 66.902 471.06 66.44 470.58 66.116C470.112 65.78 469.56 65.612 468.924 65.612C468.372 65.612 467.874 65.75 467.43 66.026C466.998 66.302 466.656 66.71 466.404 67.25C466.152 67.79 466.026 68.462 466.026 69.266C466.026 69.866 466.098 70.4 466.242 70.868C466.386 71.324 466.584 71.708 466.836 72.02C467.1 72.32 467.406 72.548 467.754 72.704C468.114 72.86 468.504 72.938 468.924 72.938C469.356 72.938 469.746 72.866 470.094 72.722C470.454 72.566 470.754 72.344 470.994 72.056C471.246 71.768 471.414 71.426 471.498 71.03H473.046C472.854 71.978 472.386 72.746 471.642 73.334C470.91 73.922 470.01 74.216 468.942 74.216ZM479.313 74.216C478.437 74.216 477.663 74.012 476.991 73.604C476.319 73.196 475.797 72.62 475.425 71.876C475.053 71.132 474.867 70.262 474.867 69.266C474.867 68.258 475.053 67.388 475.425 66.656C475.809 65.912 476.337 65.336 477.009 64.928C477.693 64.52 478.473 64.316 479.349 64.316C480.237 64.316 481.011 64.52 481.671 64.928C482.343 65.336 482.865 65.912 483.237 66.656C483.609 67.388 483.795 68.258 483.795 69.266C483.795 70.262 483.603 71.132 483.219 71.876C482.847 72.62 482.325 73.196 481.653 73.604C480.981 74.012 480.201 74.216 479.313 74.216ZM479.313 72.92C479.865 72.92 480.363 72.788 480.807 72.524C481.251 72.248 481.599 71.84 481.851 71.3C482.115 70.748 482.247 70.07 482.247 69.266C482.247 68.45 482.121 67.772 481.869 67.232C481.617 66.692 481.269 66.29 480.825 66.026C480.393 65.75 479.901 65.612 479.349 65.612C478.809 65.612 478.317 65.75 477.873 66.026C477.429 66.29 477.075 66.692 476.811 67.232C476.547 67.772 476.415 68.45 476.415 69.266C476.415 70.07 476.541 70.748 476.793 71.3C477.057 71.84 477.405 72.248 477.837 72.524C478.281 72.788 478.773 72.92 479.313 72.92ZM486.129 74V64.532H487.641V74H486.129ZM486.885 62.732C486.585 62.732 486.333 62.636 486.129 62.444C485.937 62.24 485.841 61.988 485.841 61.688C485.841 61.388 485.937 61.148 486.129 60.968C486.333 60.776 486.585 60.68 486.885 60.68C487.173 60.68 487.419 60.776 487.623 60.968C487.827 61.148 487.929 61.388 487.929 61.688C487.929 61.988 487.827 62.24 487.623 62.444C487.419 62.636 487.173 62.732 486.885 62.732ZM490.327 74V64.532H491.695L491.767 66.026C492.043 65.486 492.439 65.066 492.955 64.766C493.483 64.466 494.089 64.316 494.773 64.316C495.469 64.316 496.075 64.448 496.591 64.712C497.107 64.976 497.509 65.378 497.797 65.918C498.085 66.458 498.229 67.142 498.229 67.97V74H496.717V68.132C496.717 67.292 496.507 66.662 496.087 66.242C495.679 65.822 495.127 65.612 494.431 65.612C493.963 65.612 493.531 65.726 493.135 65.954C492.739 66.17 492.421 66.494 492.181 66.926C491.953 67.358 491.839 67.886 491.839 68.51V74H490.327ZM504.153 74.216C503.301 74.216 502.593 74.09 502.029 73.838C501.477 73.574 501.057 73.214 500.769 72.758C500.481 72.29 500.307 71.75 500.247 71.138H501.795C501.843 71.462 501.951 71.762 502.119 72.038C502.299 72.302 502.557 72.518 502.893 72.686C503.229 72.854 503.655 72.938 504.171 72.938C504.579 72.938 504.927 72.878 505.215 72.758C505.503 72.626 505.719 72.446 505.863 72.218C506.019 71.99 506.097 71.726 506.097 71.426C506.097 71.03 506.007 70.724 505.827 70.508C505.659 70.28 505.407 70.112 505.071 70.004C504.747 69.884 504.339 69.794 503.847 69.734C503.319 69.662 502.851 69.56 502.443 69.428C502.035 69.296 501.687 69.122 501.399 68.906C501.123 68.69 500.913 68.42 500.769 68.096C500.625 67.772 500.553 67.388 500.553 66.944C500.553 66.428 500.691 65.972 500.967 65.576C501.243 65.18 501.633 64.874 502.137 64.658C502.653 64.43 503.259 64.316 503.955 64.316C504.975 64.316 505.779 64.55 506.367 65.018C506.967 65.486 507.321 66.152 507.429 67.016H505.935C505.875 66.572 505.671 66.224 505.323 65.972C504.975 65.72 504.513 65.594 503.937 65.594C503.325 65.594 502.863 65.708 502.551 65.936C502.239 66.164 502.083 66.464 502.083 66.836C502.083 67.112 502.149 67.364 502.281 67.592C502.425 67.808 502.665 67.994 503.001 68.15C503.337 68.294 503.787 68.402 504.351 68.474C505.059 68.558 505.659 68.696 506.151 68.888C506.643 69.068 507.015 69.35 507.267 69.734C507.531 70.118 507.657 70.64 507.645 71.3C507.645 71.924 507.495 72.452 507.195 72.884C506.907 73.316 506.499 73.646 505.971 73.874C505.455 74.102 504.849 74.216 504.153 74.216ZM510.485 74.09C510.197 74.09 509.951 73.994 509.747 73.802C509.555 73.598 509.459 73.352 509.459 73.064C509.459 72.776 509.555 72.536 509.747 72.344C509.951 72.14 510.197 72.038 510.485 72.038C510.797 72.038 511.043 72.14 511.223 72.344C511.415 72.536 511.511 72.776 511.511 73.064C511.511 73.352 511.415 73.598 511.223 73.802C511.043 73.994 510.797 74.09 510.485 74.09ZM516.029 64.46L515.795 60.41H517.271L517.055 64.46H516.029ZM513.293 64.46L513.077 60.41H514.553L514.355 64.46H513.293Z" fill="white"/>
<path d="M28.8604 165.82L31.2917 171.642L34.7158 167.97C35.4134 167.222 35.1581 166.008 34.2182 165.604L29.1062 163.409C28.3344 163.077 27.4419 163.455 27.1425 164.24L26.0581 167.083L28.8604 165.82Z" fill="#FA4C15" stroke="#FA4C15" stroke-width="0.211086"/>
<path d="M37.6244 169.572L32.8391 173.683L37.3897 175.805C38.3168 176.237 39.3921 175.62 39.4854 174.601L39.9937 169.061C40.0706 168.224 39.4356 167.492 38.5967 167.45L35.558 167.297L37.6244 169.572Z" fill="#FA4C15" stroke="#FA4C15" stroke-width="0.211086"/>
<path d="M36.7648 179.066L31.376 175.786L30.7643 180.769C30.6397 181.785 31.5595 182.616 32.5572 182.39L37.9834 181.162C38.8026 180.976 39.3026 180.146 39.0835 179.335L38.29 176.398L36.7648 179.066Z" fill="#FA4C15" stroke="#FA4C15" stroke-width="0.211086"/>
<path d="M27.4694 181.183L28.9242 175.044L23.9956 176.002C22.9915 176.197 22.4847 177.329 23.0078 178.208L25.8531 182.989C26.2827 183.711 27.2267 183.93 27.9302 183.471L30.4784 181.809L27.4694 181.183Z" fill="#FA4C15" stroke="#FA4C15" stroke-width="0.211086"/>
<path d="M22.5841 172.996L28.872 172.483L26.4377 168.092C25.9417 167.197 24.7087 167.065 24.0343 167.834L20.3666 172.017C19.8129 172.649 19.8963 173.614 20.5501 174.142L22.9186 176.051L22.5841 172.996Z" fill="#FA4C15" stroke="#FA4C15" stroke-width="0.211086"/>
<path d="M65.868 180.216C65.004 180.216 64.218 180.042 63.51 179.694C62.814 179.346 62.256 178.818 61.836 178.11C61.416 177.39 61.206 176.472 61.206 175.356V167.4H62.718V175.374C62.718 176.19 62.85 176.856 63.114 177.372C63.39 177.888 63.768 178.266 64.248 178.506C64.728 178.746 65.28 178.866 65.904 178.866C66.54 178.866 67.092 178.746 67.56 178.506C68.028 178.266 68.394 177.888 68.658 177.372C68.922 176.856 69.054 176.19 69.054 175.374V167.4H70.566V175.356C70.566 176.472 70.356 177.39 69.936 178.11C69.516 178.818 68.952 179.346 68.244 179.694C67.536 180.042 66.744 180.216 65.868 180.216ZM73.0553 180V170.532H74.4233L74.4953 172.026C74.7713 171.486 75.1673 171.066 75.6833 170.766C76.2113 170.466 76.8173 170.316 77.5013 170.316C78.1973 170.316 78.8033 170.448 79.3193 170.712C79.8353 170.976 80.2373 171.378 80.5253 171.918C80.8133 172.458 80.9573 173.142 80.9573 173.97V180H79.4453V174.132C79.4453 173.292 79.2353 172.662 78.8153 172.242C78.4073 171.822 77.8553 171.612 77.1593 171.612C76.6913 171.612 76.2593 171.726 75.8633 171.954C75.4673 172.17 75.1493 172.494 74.9093 172.926C74.6813 173.358 74.5673 173.886 74.5673 174.51V180H73.0553ZM87.3676 180.216C86.5276 180.216 85.7836 180 85.1356 179.568C84.4876 179.136 83.9836 178.548 83.6236 177.804C83.2636 177.048 83.0836 176.196 83.0836 175.248C83.0836 174.288 83.2636 173.442 83.6236 172.71C83.9836 171.966 84.4876 171.384 85.1356 170.964C85.7836 170.532 86.5336 170.316 87.3856 170.316C88.1296 170.316 88.7656 170.466 89.2936 170.766C89.8336 171.066 90.2596 171.486 90.5716 172.026V167.04H92.0836V180H90.7156L90.5896 178.488C90.4096 178.788 90.1696 179.07 89.8696 179.334C89.5816 179.598 89.2276 179.814 88.8076 179.982C88.3996 180.138 87.9196 180.216 87.3676 180.216ZM87.5656 178.902C88.1656 178.902 88.6876 178.758 89.1316 178.47C89.5756 178.17 89.9176 177.75 90.1576 177.21C90.3976 176.658 90.5176 176.01 90.5176 175.266C90.5176 174.522 90.3976 173.88 90.1576 173.34C89.9176 172.788 89.5756 172.368 89.1316 172.08C88.6876 171.78 88.1656 171.63 87.5656 171.63C87.0016 171.63 86.4976 171.78 86.0536 172.08C85.6096 172.368 85.2616 172.788 85.0096 173.34C84.7576 173.88 84.6316 174.522 84.6316 175.266C84.6316 176.01 84.7576 176.658 85.0096 177.21C85.2616 177.75 85.6096 178.17 86.0536 178.47C86.4976 178.758 87.0016 178.902 87.5656 178.902ZM98.5653 180.216C97.7253 180.216 96.9813 180.012 96.3333 179.604C95.6853 179.196 95.1753 178.62 94.8033 177.876C94.4433 177.132 94.2633 176.262 94.2633 175.266C94.2633 174.27 94.4433 173.4 94.8033 172.656C95.1753 171.912 95.6853 171.336 96.3333 170.928C96.9933 170.52 97.7493 170.316 98.6013 170.316C99.5133 170.316 100.275 170.52 100.887 170.928C101.499 171.336 101.961 171.882 102.273 172.566C102.585 173.25 102.741 174 102.741 174.816C102.741 174.936 102.741 175.056 102.741 175.176C102.741 175.296 102.735 175.44 102.723 175.608H95.3973V174.438H101.265C101.241 173.514 100.971 172.812 100.455 172.332C99.9513 171.84 99.3213 171.594 98.5653 171.594C98.0613 171.594 97.5933 171.72 97.1613 171.972C96.7413 172.212 96.3993 172.572 96.1353 173.052C95.8713 173.532 95.7393 174.132 95.7393 174.852V175.356C95.7393 176.148 95.8713 176.814 96.1353 177.354C96.3993 177.882 96.7413 178.278 97.1613 178.542C97.5933 178.806 98.0613 178.938 98.5653 178.938C99.2373 178.938 99.7653 178.812 100.149 178.56C100.533 178.296 100.815 177.924 100.995 177.444H102.489C102.345 177.972 102.093 178.446 101.733 178.866C101.385 179.286 100.941 179.616 100.401 179.856C99.8733 180.096 99.2613 180.216 98.5653 180.216ZM104.837 180V170.532H106.205L106.313 172.26C106.529 171.828 106.811 171.468 107.159 171.18C107.507 170.892 107.927 170.676 108.419 170.532C108.923 170.388 109.487 170.316 110.111 170.316V171.9H109.175C108.815 171.9 108.467 171.948 108.131 172.044C107.795 172.14 107.489 172.296 107.213 172.512C106.949 172.728 106.739 173.022 106.583 173.394C106.427 173.766 106.349 174.234 106.349 174.798V180H104.837ZM115.27 180.216C114.418 180.216 113.71 180.09 113.146 179.838C112.594 179.574 112.174 179.214 111.886 178.758C111.598 178.29 111.424 177.75 111.364 177.138H112.912C112.96 177.462 113.068 177.762 113.236 178.038C113.416 178.302 113.674 178.518 114.01 178.686C114.346 178.854 114.772 178.938 115.288 178.938C115.696 178.938 116.044 178.878 116.332 178.758C116.62 178.626 116.836 178.446 116.98 178.218C117.136 177.99 117.214 177.726 117.214 177.426C117.214 177.03 117.124 176.724 116.944 176.508C116.776 176.28 116.524 176.112 116.188 176.004C115.864 175.884 115.456 175.794 114.964 175.734C114.436 175.662 113.968 175.56 113.56 175.428C113.152 175.296 112.804 175.122 112.516 174.906C112.24 174.69 112.03 174.42 111.886 174.096C111.742 173.772 111.67 173.388 111.67 172.944C111.67 172.428 111.808 171.972 112.084 171.576C112.36 171.18 112.75 170.874 113.254 170.658C113.77 170.43 114.376 170.316 115.072 170.316C116.092 170.316 116.896 170.55 117.484 171.018C118.084 171.486 118.438 172.152 118.546 173.016H117.052C116.992 172.572 116.788 172.224 116.44 171.972C116.092 171.72 115.63 171.594 115.054 171.594C114.442 171.594 113.98 171.708 113.668 171.936C113.356 172.164 113.2 172.464 113.2 172.836C113.2 173.112 113.266 173.364 113.398 173.592C113.542 173.808 113.782 173.994 114.118 174.15C114.454 174.294 114.904 174.402 115.468 174.474C116.176 174.558 116.776 174.696 117.268 174.888C117.76 175.068 118.132 175.35 118.384 175.734C118.648 176.118 118.774 176.64 118.762 177.3C118.762 177.924 118.612 178.452 118.312 178.884C118.024 179.316 117.616 179.646 117.088 179.874C116.572 180.102 115.966 180.216 115.27 180.216ZM124.276 180C123.736 180 123.268 179.916 122.872 179.748C122.476 179.58 122.17 179.298 121.954 178.902C121.75 178.494 121.648 177.948 121.648 177.264V171.81H119.992V170.532H121.648L121.846 168.174H123.16V170.532H125.842V171.81H123.16V177.264C123.16 177.828 123.274 178.212 123.502 178.416C123.73 178.608 124.132 178.704 124.708 178.704H125.806V180H124.276ZM130.869 180.216C130.149 180.216 129.549 180.084 129.069 179.82C128.589 179.544 128.229 179.184 127.989 178.74C127.749 178.284 127.629 177.798 127.629 177.282C127.629 176.658 127.785 176.13 128.097 175.698C128.421 175.254 128.871 174.918 129.447 174.69C130.023 174.462 130.695 174.348 131.463 174.348H133.821C133.821 173.736 133.749 173.226 133.605 172.818C133.461 172.41 133.227 172.104 132.903 171.9C132.579 171.696 132.147 171.594 131.607 171.594C131.067 171.594 130.605 171.732 130.221 172.008C129.837 172.272 129.597 172.668 129.501 173.196H127.953C128.025 172.572 128.235 172.05 128.583 171.63C128.931 171.198 129.369 170.874 129.897 170.658C130.437 170.43 131.007 170.316 131.607 170.316C132.459 170.316 133.161 170.472 133.713 170.784C134.265 171.084 134.673 171.51 134.937 172.062C135.201 172.602 135.333 173.244 135.333 173.988V180H133.983L133.893 178.38C133.773 178.632 133.617 178.872 133.425 179.1C133.245 179.316 133.029 179.508 132.777 179.676C132.525 179.844 132.237 179.976 131.913 180.072C131.601 180.168 131.253 180.216 130.869 180.216ZM131.085 178.938C131.481 178.938 131.847 178.848 132.183 178.668C132.519 178.488 132.807 178.248 133.047 177.948C133.299 177.636 133.491 177.288 133.623 176.904C133.755 176.52 133.821 176.118 133.821 175.698V175.518H131.589C131.025 175.518 130.563 175.59 130.203 175.734C129.855 175.878 129.603 176.082 129.447 176.346C129.291 176.598 129.213 176.886 129.213 177.21C129.213 177.558 129.285 177.864 129.429 178.128C129.573 178.38 129.783 178.578 130.059 178.722C130.347 178.866 130.689 178.938 131.085 178.938ZM137.831 180V170.532H139.199L139.271 172.026C139.547 171.486 139.943 171.066 140.459 170.766C140.987 170.466 141.593 170.316 142.277 170.316C142.973 170.316 143.579 170.448 144.095 170.712C144.611 170.976 145.013 171.378 145.301 171.918C145.589 172.458 145.733 173.142 145.733 173.97V180H144.221V174.132C144.221 173.292 144.011 172.662 143.591 172.242C143.183 171.822 142.631 171.612 141.935 171.612C141.467 171.612 141.035 171.726 140.639 171.954C140.243 172.17 139.925 172.494 139.685 172.926C139.457 173.358 139.343 173.886 139.343 174.51V180H137.831ZM152.143 180.216C151.303 180.216 150.559 180 149.911 179.568C149.263 179.136 148.759 178.548 148.399 177.804C148.039 177.048 147.859 176.196 147.859 175.248C147.859 174.288 148.039 173.442 148.399 172.71C148.759 171.966 149.263 171.384 149.911 170.964C150.559 170.532 151.309 170.316 152.161 170.316C152.905 170.316 153.541 170.466 154.069 170.766C154.609 171.066 155.035 171.486 155.347 172.026V167.04H156.859V180H155.491L155.365 178.488C155.185 178.788 154.945 179.07 154.645 179.334C154.357 179.598 154.003 179.814 153.583 179.982C153.175 180.138 152.695 180.216 152.143 180.216ZM152.341 178.902C152.941 178.902 153.463 178.758 153.907 178.47C154.351 178.17 154.693 177.75 154.933 177.21C155.173 176.658 155.293 176.01 155.293 175.266C155.293 174.522 155.173 173.88 154.933 173.34C154.693 172.788 154.351 172.368 153.907 172.08C153.463 171.78 152.941 171.63 152.341 171.63C151.777 171.63 151.273 171.78 150.829 172.08C150.385 172.368 150.037 172.788 149.785 173.34C149.533 173.88 149.407 174.522 149.407 175.266C149.407 176.01 149.533 176.658 149.785 177.21C150.037 177.75 150.385 178.17 150.829 178.47C151.273 178.758 151.777 178.902 152.341 178.902ZM159.561 180V170.532H161.073V180H159.561ZM160.317 168.732C160.017 168.732 159.765 168.636 159.561 168.444C159.369 168.24 159.273 167.988 159.273 167.688C159.273 167.388 159.369 167.148 159.561 166.968C159.765 166.776 160.017 166.68 160.317 166.68C160.605 166.68 160.851 166.776 161.055 166.968C161.259 167.148 161.361 167.388 161.361 167.688C161.361 167.988 161.259 168.24 161.055 168.444C160.851 168.636 160.605 168.732 160.317 168.732ZM163.758 180V170.532H165.126L165.198 172.026C165.474 171.486 165.87 171.066 166.386 170.766C166.914 170.466 167.52 170.316 168.204 170.316C168.9 170.316 169.506 170.448 170.022 170.712C170.538 170.976 170.94 171.378 171.228 171.918C171.516 172.458 171.66 173.142 171.66 173.97V180H170.148V174.132C170.148 173.292 169.938 172.662 169.518 172.242C169.11 171.822 168.558 171.612 167.862 171.612C167.394 171.612 166.962 171.726 166.566 171.954C166.17 172.17 165.852 172.494 165.612 172.926C165.384 173.358 165.27 173.886 165.27 174.51V180H163.758ZM177.873 184.176C177.021 184.176 176.271 184.068 175.623 183.852C174.987 183.648 174.489 183.33 174.129 182.898C173.781 182.466 173.607 181.932 173.607 181.296C173.607 180.996 173.661 180.684 173.769 180.36C173.889 180.036 174.087 179.724 174.363 179.424C174.651 179.124 175.053 178.854 175.569 178.614L176.721 179.226C176.037 179.49 175.593 179.796 175.389 180.144C175.185 180.492 175.083 180.828 175.083 181.152C175.083 181.548 175.197 181.878 175.425 182.142C175.665 182.406 175.995 182.604 176.415 182.736C176.835 182.868 177.321 182.934 177.873 182.934C178.413 182.934 178.875 182.862 179.259 182.718C179.655 182.586 179.955 182.388 180.159 182.124C180.375 181.872 180.483 181.572 180.483 181.224C180.483 180.72 180.321 180.324 179.997 180.036C179.673 179.76 179.043 179.598 178.107 179.55C177.375 179.502 176.763 179.436 176.271 179.352C175.779 179.268 175.371 179.172 175.047 179.064C174.735 178.944 174.471 178.812 174.255 178.668C174.051 178.524 173.865 178.374 173.697 178.218V177.804L175.479 176.094L176.901 176.562L174.957 178.164L175.191 177.48C175.323 177.576 175.449 177.666 175.569 177.75C175.689 177.834 175.851 177.912 176.055 177.984C176.271 178.044 176.565 178.104 176.937 178.164C177.321 178.224 177.825 178.278 178.449 178.326C179.313 178.386 180.003 178.53 180.519 178.758C181.035 178.986 181.407 179.304 181.635 179.712C181.863 180.108 181.977 180.594 181.977 181.17C181.977 181.674 181.833 182.154 181.545 182.61C181.269 183.066 180.825 183.438 180.213 183.726C179.613 184.026 178.833 184.176 177.873 184.176ZM177.855 177.048C177.087 177.048 176.433 176.904 175.893 176.616C175.365 176.316 174.963 175.914 174.687 175.41C174.411 174.894 174.273 174.318 174.273 173.682C174.273 173.046 174.411 172.476 174.687 171.972C174.975 171.468 175.383 171.066 175.911 170.766C176.451 170.466 177.099 170.316 177.855 170.316C178.635 170.316 179.289 170.466 179.817 170.766C180.345 171.066 180.747 171.468 181.023 171.972C181.299 172.476 181.437 173.046 181.437 173.682C181.437 174.318 181.299 174.894 181.023 175.41C180.747 175.914 180.345 176.316 179.817 176.616C179.289 176.904 178.635 177.048 177.855 177.048ZM177.855 175.806C178.527 175.806 179.049 175.632 179.421 175.284C179.793 174.924 179.979 174.39 179.979 173.682C179.979 172.974 179.793 172.446 179.421 172.098C179.049 171.75 178.527 171.576 177.855 171.576C177.219 171.576 176.697 171.75 176.289 172.098C175.893 172.446 175.695 172.974 175.695 173.682C175.695 174.39 175.887 174.924 176.271 175.284C176.667 175.632 177.195 175.806 177.855 175.806ZM179.439 171.81L178.989 170.532H182.697V171.666L179.439 171.81ZM188.424 180.09C188.136 180.09 187.89 179.994 187.686 179.802C187.494 179.598 187.398 179.352 187.398 179.064C187.398 178.776 187.494 178.536 187.686 178.344C187.89 178.14 188.136 178.038 188.424 178.038C188.736 178.038 188.982 178.14 189.162 178.344C189.354 178.536 189.45 178.776 189.45 179.064C189.45 179.352 189.354 179.598 189.162 179.802C188.982 179.994 188.736 180.09 188.424 180.09ZM191.736 180.09C191.448 180.09 191.202 179.994 190.998 179.802C190.806 179.598 190.71 179.352 190.71 179.064C190.71 178.776 190.806 178.536 190.998 178.344C191.202 178.14 191.448 178.038 191.736 178.038C192.048 178.038 192.294 178.14 192.474 178.344C192.666 178.536 192.762 178.776 192.762 179.064C192.762 179.352 192.666 179.598 192.474 179.802C192.294 179.994 192.048 180.09 191.736 180.09ZM185.112 180.09C184.824 180.09 184.578 179.994 184.374 179.802C184.182 179.598 184.086 179.352 184.086 179.064C184.086 178.776 184.182 178.536 184.374 178.344C184.578 178.14 184.824 178.038 185.112 178.038C185.424 178.038 185.67 178.14 185.85 178.344C186.042 178.536 186.138 178.776 186.138 179.064C186.138 179.352 186.042 179.598 185.85 179.802C185.67 179.994 185.424 180.09 185.112 180.09Z" fill="white" fill-opacity="0.4"/>
<path d="M28.8604 205.82L31.2917 211.642L34.7158 207.97C35.4134 207.222 35.1581 206.008 34.2182 205.604L29.1062 203.409C28.3344 203.077 27.4419 203.455 27.1425 204.24L26.0581 207.083L28.8604 205.82Z" fill="#FA4C15" stroke="#FA4C15" stroke-width="0.211086"/>
<path d="M37.6244 209.572L32.8391 213.683L37.3897 215.805C38.3168 216.237 39.3921 215.62 39.4854 214.601L39.9937 209.061C40.0706 208.224 39.4356 207.492 38.5967 207.45L35.558 207.297L37.6244 209.572Z" fill="#FA4C15" stroke="#FA4C15" stroke-width="0.211086"/>
<path d="M36.7648 219.066L31.376 215.786L30.7643 220.769C30.6397 221.785 31.5595 222.616 32.5572 222.39L37.9834 221.162C38.8026 220.976 39.3026 220.146 39.0835 219.335L38.29 216.398L36.7648 219.066Z" fill="#FA4C15" stroke="#FA4C15" stroke-width="0.211086"/>
<path d="M27.4694 221.183L28.9242 215.044L23.9956 216.002C22.9915 216.197 22.4847 217.329 23.0078 218.208L25.8531 222.989C26.2827 223.711 27.2267 223.93 27.9302 223.471L30.4784 221.809L27.4694 221.183Z" fill="#FA4C15" stroke="#FA4C15" stroke-width="0.211086"/>
<path d="M22.5841 212.996L28.872 212.483L26.4377 208.092C25.9417 207.197 24.7087 207.065 24.0343 207.834L20.3666 212.017C19.8129 212.649 19.8963 213.614 20.5501 214.142L22.9186 216.051L22.5841 212.996Z" fill="#FA4C15" stroke="#FA4C15" stroke-width="0.211086"/>
<path d="M65.418 220.216C64.494 220.216 63.69 220.048 63.006 219.712C62.322 219.376 61.794 218.908 61.422 218.308C61.05 217.708 60.864 217.012 60.864 216.22H62.448C62.448 216.712 62.562 217.168 62.79 217.588C63.018 217.996 63.348 218.326 63.78 218.578C64.224 218.818 64.77 218.938 65.418 218.938C65.982 218.938 66.462 218.848 66.858 218.668C67.266 218.476 67.572 218.218 67.776 217.894C67.992 217.57 68.1 217.204 68.1 216.796C68.1 216.34 67.998 215.962 67.794 215.662C67.602 215.35 67.332 215.098 66.984 214.906C66.636 214.702 66.234 214.522 65.778 214.366C65.322 214.21 64.83 214.048 64.302 213.88C63.246 213.544 62.478 213.124 61.998 212.62C61.53 212.104 61.296 211.444 61.296 210.64C61.296 209.956 61.452 209.356 61.764 208.84C62.088 208.324 62.544 207.922 63.132 207.634C63.732 207.334 64.44 207.184 65.256 207.184C66.06 207.184 66.756 207.334 67.344 207.634C67.944 207.934 68.412 208.348 68.748 208.876C69.084 209.392 69.252 209.992 69.252 210.676H67.668C67.668 210.328 67.578 209.986 67.398 209.65C67.218 209.314 66.942 209.038 66.57 208.822C66.21 208.594 65.754 208.48 65.202 208.48C64.746 208.468 64.338 208.546 63.978 208.714C63.63 208.87 63.354 209.098 63.15 209.398C62.958 209.698 62.862 210.064 62.862 210.496C62.862 210.904 62.946 211.234 63.114 211.486C63.294 211.738 63.546 211.954 63.87 212.134C64.206 212.302 64.596 212.458 65.04 212.602C65.484 212.746 65.976 212.908 66.516 213.088C67.128 213.292 67.668 213.544 68.136 213.844C68.616 214.132 68.988 214.504 69.252 214.96C69.528 215.416 69.666 215.998 69.666 216.706C69.666 217.306 69.504 217.876 69.18 218.416C68.868 218.944 68.4 219.376 67.776 219.712C67.152 220.048 66.366 220.216 65.418 220.216ZM75.9109 220.216C75.0469 220.216 74.2789 220.012 73.6069 219.604C72.9349 219.184 72.4069 218.602 72.0229 217.858C71.6389 217.114 71.4469 216.25 71.4469 215.266C71.4469 214.27 71.6389 213.406 72.0229 212.674C72.4069 211.93 72.9349 211.354 73.6069 210.946C74.2789 210.526 75.0469 210.316 75.9109 210.316C76.9909 210.316 77.8909 210.604 78.6109 211.18C79.3429 211.756 79.8109 212.53 80.0149 213.502H78.4669C78.3349 212.902 78.0289 212.44 77.5489 212.116C77.0809 211.78 76.5289 211.612 75.8929 211.612C75.3409 211.612 74.8429 211.75 74.3989 212.026C73.9669 212.302 73.6249 212.71 73.3729 213.25C73.1209 213.79 72.9949 214.462 72.9949 215.266C72.9949 215.866 73.0669 216.4 73.2109 216.868C73.3549 217.324 73.5529 217.708 73.8049 218.02C74.0689 218.32 74.3749 218.548 74.7229 218.704C75.0829 218.86 75.4729 218.938 75.8929 218.938C76.3249 218.938 76.7149 218.866 77.0629 218.722C77.4229 218.566 77.7229 218.344 77.9629 218.056C78.2149 217.768 78.3829 217.426 78.4669 217.03H80.0149C79.8229 217.978 79.3549 218.746 78.6109 219.334C77.8789 219.922 76.9789 220.216 75.9109 220.216ZM85.1655 220.216C84.4455 220.216 83.8455 220.084 83.3655 219.82C82.8855 219.544 82.5255 219.184 82.2855 218.74C82.0455 218.284 81.9255 217.798 81.9255 217.282C81.9255 216.658 82.0815 216.13 82.3935 215.698C82.7175 215.254 83.1675 214.918 83.7435 214.69C84.3195 214.462 84.9915 214.348 85.7595 214.348H88.1175C88.1175 213.736 88.0455 213.226 87.9015 212.818C87.7575 212.41 87.5235 212.104 87.1995 211.9C86.8755 211.696 86.4435 211.594 85.9035 211.594C85.3635 211.594 84.9015 211.732 84.5175 212.008C84.1335 212.272 83.8935 212.668 83.7975 213.196H82.2495C82.3215 212.572 82.5315 212.05 82.8795 211.63C83.2275 211.198 83.6655 210.874 84.1935 210.658C84.7335 210.43 85.3035 210.316 85.9035 210.316C86.7555 210.316 87.4575 210.472 88.0095 210.784C88.5615 211.084 88.9695 211.51 89.2335 212.062C89.4975 212.602 89.6295 213.244 89.6295 213.988V220H88.2795L88.1895 218.38C88.0695 218.632 87.9135 218.872 87.7215 219.1C87.5415 219.316 87.3255 219.508 87.0735 219.676C86.8215 219.844 86.5335 219.976 86.2095 220.072C85.8975 220.168 85.5495 220.216 85.1655 220.216ZM85.3815 218.938C85.7775 218.938 86.1435 218.848 86.4795 218.668C86.8155 218.488 87.1035 218.248 87.3435 217.948C87.5955 217.636 87.7875 217.288 87.9195 216.904C88.0515 216.52 88.1175 216.118 88.1175 215.698V215.518H85.8855C85.3215 215.518 84.8595 215.59 84.4995 215.734C84.1515 215.878 83.8995 216.082 83.7435 216.346C83.5875 216.598 83.5095 216.886 83.5095 217.21C83.5095 217.558 83.5815 217.864 83.7255 218.128C83.8695 218.38 84.0795 218.578 84.3555 218.722C84.6435 218.866 84.9855 218.938 85.3815 218.938ZM92.1276 220V210.532H93.4956L93.5676 212.026C93.8436 211.486 94.2396 211.066 94.7556 210.766C95.2836 210.466 95.8896 210.316 96.5736 210.316C97.2696 210.316 97.8756 210.448 98.3916 210.712C98.9076 210.976 99.3096 211.378 99.5976 211.918C99.8856 212.458 100.03 213.142 100.03 213.97V220H98.5176V214.132C98.5176 213.292 98.3076 212.662 97.8876 212.242C97.4796 211.822 96.9276 211.612 96.2316 211.612C95.7636 211.612 95.3316 211.726 94.9356 211.954C94.5396 212.17 94.2216 212.494 93.9816 212.926C93.7536 213.358 93.6396 213.886 93.6396 214.51V220H92.1276ZM102.534 220V210.532H103.902L103.974 212.026C104.25 211.486 104.646 211.066 105.162 210.766C105.69 210.466 106.296 210.316 106.98 210.316C107.676 210.316 108.282 210.448 108.798 210.712C109.314 210.976 109.716 211.378 110.004 211.918C110.292 212.458 110.436 213.142 110.436 213.97V220H108.924V214.132C108.924 213.292 108.714 212.662 108.294 212.242C107.886 211.822 107.334 211.612 106.638 211.612C106.17 211.612 105.738 211.726 105.342 211.954C104.946 212.17 104.628 212.494 104.388 212.926C104.16 213.358 104.046 213.886 104.046 214.51V220H102.534ZM113.084 220V210.532H114.596V220H113.084ZM113.84 208.732C113.54 208.732 113.288 208.636 113.084 208.444C112.892 208.24 112.796 207.988 112.796 207.688C112.796 207.388 112.892 207.148 113.084 206.968C113.288 206.776 113.54 206.68 113.84 206.68C114.128 206.68 114.374 206.776 114.578 206.968C114.782 207.148 114.884 207.388 114.884 207.688C114.884 207.988 114.782 208.24 114.578 208.444C114.374 208.636 114.128 208.732 113.84 208.732ZM117.282 220V210.532H118.65L118.722 212.026C118.998 211.486 119.394 211.066 119.91 210.766C120.438 210.466 121.044 210.316 121.728 210.316C122.424 210.316 123.03 210.448 123.546 210.712C124.062 210.976 124.464 211.378 124.752 211.918C125.04 212.458 125.184 213.142 125.184 213.97V220H123.672V214.132C123.672 213.292 123.462 212.662 123.042 212.242C122.634 211.822 122.082 211.612 121.386 211.612C120.918 211.612 120.486 211.726 120.09 211.954C119.694 212.17 119.376 212.494 119.136 212.926C118.908 213.358 118.794 213.886 118.794 214.51V220H117.282ZM131.396 224.176C130.544 224.176 129.794 224.068 129.146 223.852C128.51 223.648 128.012 223.33 127.652 222.898C127.304 222.466 127.13 221.932 127.13 221.296C127.13 220.996 127.184 220.684 127.292 220.36C127.412 220.036 127.61 219.724 127.886 219.424C128.174 219.124 128.576 218.854 129.092 218.614L130.244 219.226C129.56 219.49 129.116 219.796 128.912 220.144C128.708 220.492 128.606 220.828 128.606 221.152C128.606 221.548 128.72 221.878 128.948 222.142C129.188 222.406 129.518 222.604 129.938 222.736C130.358 222.868 130.844 222.934 131.396 222.934C131.936 222.934 132.398 222.862 132.782 222.718C133.178 222.586 133.478 222.388 133.682 222.124C133.898 221.872 134.006 221.572 134.006 221.224C134.006 220.72 133.844 220.324 133.52 220.036C133.196 219.76 132.566 219.598 131.63 219.55C130.898 219.502 130.286 219.436 129.794 219.352C129.302 219.268 128.894 219.172 128.57 219.064C128.258 218.944 127.994 218.812 127.778 218.668C127.574 218.524 127.388 218.374 127.22 218.218V217.804L129.002 216.094L130.424 216.562L128.48 218.164L128.714 217.48C128.846 217.576 128.972 217.666 129.092 217.75C129.212 217.834 129.374 217.912 129.578 217.984C129.794 218.044 130.088 218.104 130.46 218.164C130.844 218.224 131.348 218.278 131.972 218.326C132.836 218.386 133.526 218.53 134.042 218.758C134.558 218.986 134.93 219.304 135.158 219.712C135.386 220.108 135.5 220.594 135.5 221.17C135.5 221.674 135.356 222.154 135.068 222.61C134.792 223.066 134.348 223.438 133.736 223.726C133.136 224.026 132.356 224.176 131.396 224.176ZM131.378 217.048C130.61 217.048 129.956 216.904 129.416 216.616C128.888 216.316 128.486 215.914 128.21 215.41C127.934 214.894 127.796 214.318 127.796 213.682C127.796 213.046 127.934 212.476 128.21 211.972C128.498 211.468 128.906 211.066 129.434 210.766C129.974 210.466 130.622 210.316 131.378 210.316C132.158 210.316 132.812 210.466 133.34 210.766C133.868 211.066 134.27 211.468 134.546 211.972C134.822 212.476 134.96 213.046 134.96 213.682C134.96 214.318 134.822 214.894 134.546 215.41C134.27 215.914 133.868 216.316 133.34 216.616C132.812 216.904 132.158 217.048 131.378 217.048ZM131.378 215.806C132.05 215.806 132.572 215.632 132.944 215.284C133.316 214.924 133.502 214.39 133.502 213.682C133.502 212.974 133.316 212.446 132.944 212.098C132.572 211.75 132.05 211.576 131.378 211.576C130.742 211.576 130.22 211.75 129.812 212.098C129.416 212.446 129.218 212.974 129.218 213.682C129.218 214.39 129.41 214.924 129.794 215.284C130.19 215.632 130.718 215.806 131.378 215.806ZM132.962 211.81L132.512 210.532H136.22V211.666L132.962 211.81ZM143.938 223.96L146.08 218.992H145.558L142.012 210.532H143.65L146.584 217.822L149.644 210.532H151.21L145.504 223.96H143.938ZM153.039 220V210.532H154.551V220H153.039ZM153.795 208.732C153.495 208.732 153.243 208.636 153.039 208.444C152.847 208.24 152.751 207.988 152.751 207.688C152.751 207.388 152.847 207.148 153.039 206.968C153.243 206.776 153.495 206.68 153.795 206.68C154.083 206.68 154.329 206.776 154.533 206.968C154.737 207.148 154.839 207.388 154.839 207.688C154.839 207.988 154.737 208.24 154.533 208.444C154.329 208.636 154.083 208.732 153.795 208.732ZM161.161 220.216C160.321 220.216 159.577 220.012 158.929 219.604C158.281 219.196 157.771 218.62 157.399 217.876C157.039 217.132 156.859 216.262 156.859 215.266C156.859 214.27 157.039 213.4 157.399 212.656C157.771 211.912 158.281 211.336 158.929 210.928C159.589 210.52 160.345 210.316 161.197 210.316C162.109 210.316 162.871 210.52 163.483 210.928C164.095 211.336 164.557 211.882 164.869 212.566C165.181 213.25 165.337 214 165.337 214.816C165.337 214.936 165.337 215.056 165.337 215.176C165.337 215.296 165.331 215.44 165.319 215.608H157.993V214.438H163.861C163.837 213.514 163.567 212.812 163.051 212.332C162.547 211.84 161.917 211.594 161.161 211.594C160.657 211.594 160.189 211.72 159.757 211.972C159.337 212.212 158.995 212.572 158.731 213.052C158.467 213.532 158.335 214.132 158.335 214.852V215.356C158.335 216.148 158.467 216.814 158.731 217.354C158.995 217.882 159.337 218.278 159.757 218.542C160.189 218.806 160.657 218.938 161.161 218.938C161.833 218.938 162.361 218.812 162.745 218.56C163.129 218.296 163.411 217.924 163.591 217.444H165.085C164.941 217.972 164.689 218.446 164.329 218.866C163.981 219.286 163.537 219.616 162.997 219.856C162.469 220.096 161.857 220.216 161.161 220.216ZM167.432 220V207.04H168.944V220H167.432ZM175.399 220.216C174.559 220.216 173.815 220 173.167 219.568C172.519 219.136 172.015 218.548 171.655 217.804C171.295 217.048 171.115 216.196 171.115 215.248C171.115 214.288 171.295 213.442 171.655 212.71C172.015 211.966 172.519 211.384 173.167 210.964C173.815 210.532 174.565 210.316 175.417 210.316C176.161 210.316 176.797 210.466 177.325 210.766C177.865 211.066 178.291 211.486 178.603 212.026V207.04H180.115V220H178.747L178.621 218.488C178.441 218.788 178.201 219.07 177.901 219.334C177.613 219.598 177.259 219.814 176.839 219.982C176.431 220.138 175.951 220.216 175.399 220.216ZM175.597 218.902C176.197 218.902 176.719 218.758 177.163 218.47C177.607 218.17 177.949 217.75 178.189 217.21C178.429 216.658 178.549 216.01 178.549 215.266C178.549 214.522 178.429 213.88 178.189 213.34C177.949 212.788 177.607 212.368 177.163 212.08C176.719 211.78 176.197 211.63 175.597 211.63C175.033 211.63 174.529 211.78 174.085 212.08C173.641 212.368 173.293 212.788 173.041 213.34C172.789 213.88 172.663 214.522 172.663 215.266C172.663 216.01 172.789 216.658 173.041 217.21C173.293 217.75 173.641 218.17 174.085 218.47C174.529 218.758 175.033 218.902 175.597 218.902ZM187.507 223.96V210.532H188.875L189.001 212.008C189.193 211.696 189.433 211.414 189.721 211.162C190.021 210.91 190.375 210.706 190.783 210.55C191.203 210.394 191.683 210.316 192.223 210.316C193.075 210.316 193.819 210.532 194.455 210.964C195.103 211.396 195.607 211.984 195.967 212.728C196.327 213.472 196.507 214.324 196.507 215.284C196.507 216.232 196.327 217.078 195.967 217.822C195.607 218.566 195.103 219.154 194.455 219.586C193.807 220.006 193.057 220.216 192.205 220.216C191.473 220.216 190.831 220.066 190.279 219.766C189.727 219.466 189.307 219.046 189.019 218.506V223.96H187.507ZM192.025 218.902C192.589 218.902 193.087 218.758 193.519 218.47C193.963 218.17 194.311 217.75 194.563 217.21C194.827 216.658 194.959 216.01 194.959 215.266C194.959 214.522 194.827 213.88 194.563 213.34C194.311 212.788 193.963 212.368 193.519 212.08C193.087 211.78 192.589 211.63 192.025 211.63C191.425 211.63 190.903 211.78 190.459 212.08C190.015 212.368 189.673 212.788 189.433 213.34C189.193 213.88 189.073 214.522 189.073 215.266C189.073 216.01 189.193 216.658 189.433 217.21C189.673 217.75 190.015 218.17 190.459 218.47C190.903 218.758 191.425 218.902 192.025 218.902ZM198.704 220V210.532H200.072L200.18 212.26C200.396 211.828 200.678 211.468 201.026 211.18C201.374 210.892 201.794 210.676 202.286 210.532C202.79 210.388 203.354 210.316 203.978 210.316V211.9H203.042C202.682 211.9 202.334 211.948 201.998 212.044C201.662 212.14 201.356 212.296 201.08 212.512C200.816 212.728 200.606 213.022 200.45 213.394C200.294 213.766 200.216 214.234 200.216 214.798V220H198.704ZM209.451 220.216C208.575 220.216 207.801 220.012 207.129 219.604C206.457 219.196 205.935 218.62 205.563 217.876C205.191 217.132 205.005 216.262 205.005 215.266C205.005 214.258 205.191 213.388 205.563 212.656C205.947 211.912 206.475 211.336 207.147 210.928C207.831 210.52 208.611 210.316 209.487 210.316C210.375 210.316 211.149 210.52 211.809 210.928C212.481 211.336 213.003 211.912 213.375 212.656C213.747 213.388 213.933 214.258 213.933 215.266C213.933 216.262 213.741 217.132 213.357 217.876C212.985 218.62 212.463 219.196 211.791 219.604C211.119 220.012 210.339 220.216 209.451 220.216ZM209.451 218.92C210.003 218.92 210.501 218.788 210.945 218.524C211.389 218.248 211.737 217.84 211.989 217.3C212.253 216.748 212.385 216.07 212.385 215.266C212.385 214.45 212.259 213.772 212.007 213.232C211.755 212.692 211.407 212.29 210.963 212.026C210.531 211.75 210.039 211.612 209.487 211.612C208.947 211.612 208.455 211.75 208.011 212.026C207.567 212.29 207.213 212.692 206.949 213.232C206.685 213.772 206.553 214.45 206.553 215.266C206.553 216.07 206.679 216.748 206.931 217.3C207.195 217.84 207.543 218.248 207.975 218.524C208.419 218.788 208.911 218.92 209.451 218.92ZM219.444 220C218.904 220 218.436 219.916 218.04 219.748C217.644 219.58 217.338 219.298 217.122 218.902C216.918 218.494 216.816 217.948 216.816 217.264V211.81H215.16V210.532H216.816L217.014 208.174H218.328V210.532H221.01V211.81H218.328V217.264C218.328 217.828 218.442 218.212 218.67 218.416C218.898 218.608 219.3 218.704 219.876 218.704H220.974V220H219.444ZM226.907 220.216C226.031 220.216 225.257 220.012 224.585 219.604C223.913 219.196 223.391 218.62 223.019 217.876C222.647 217.132 222.461 216.262 222.461 215.266C222.461 214.258 222.647 213.388 223.019 212.656C223.403 211.912 223.931 211.336 224.603 210.928C225.287 210.52 226.067 210.316 226.943 210.316C227.831 210.316 228.605 210.52 229.265 210.928C229.937 211.336 230.459 211.912 230.831 212.656C231.203 213.388 231.389 214.258 231.389 215.266C231.389 216.262 231.197 217.132 230.813 217.876C230.441 218.62 229.919 219.196 229.247 219.604C228.575 220.012 227.795 220.216 226.907 220.216ZM226.907 218.92C227.459 218.92 227.957 218.788 228.401 218.524C228.845 218.248 229.193 217.84 229.445 217.3C229.709 216.748 229.841 216.07 229.841 215.266C229.841 214.45 229.715 213.772 229.463 213.232C229.211 212.692 228.863 212.29 228.419 212.026C227.987 211.75 227.495 211.612 226.943 211.612C226.403 211.612 225.911 211.75 225.467 212.026C225.023 212.29 224.669 212.692 224.405 213.232C224.141 213.772 224.009 214.45 224.009 215.266C224.009 216.07 224.135 216.748 224.387 217.3C224.651 217.84 224.999 218.248 225.431 218.524C225.875 218.788 226.367 218.92 226.907 218.92ZM237.665 220.216C236.801 220.216 236.033 220.012 235.361 219.604C234.689 219.184 234.161 218.602 233.777 217.858C233.393 217.114 233.201 216.25 233.201 215.266C233.201 214.27 233.393 213.406 233.777 212.674C234.161 211.93 234.689 211.354 235.361 210.946C236.033 210.526 236.801 210.316 237.665 210.316C238.745 210.316 239.645 210.604 240.365 211.18C241.097 211.756 241.565 212.53 241.769 213.502H240.221C240.089 212.902 239.783 212.44 239.303 212.116C238.835 211.78 238.283 211.612 237.647 211.612C237.095 211.612 236.597 211.75 236.153 212.026C235.721 212.302 235.379 212.71 235.127 213.25C234.875 213.79 234.749 214.462 234.749 215.266C234.749 215.866 234.821 216.4 234.965 216.868C235.109 217.324 235.307 217.708 235.559 218.02C235.823 218.32 236.129 218.548 236.477 218.704C236.837 218.86 237.227 218.938 237.647 218.938C238.079 218.938 238.469 218.866 238.817 218.722C239.177 218.566 239.477 218.344 239.717 218.056C239.969 217.768 240.137 217.426 240.221 217.03H241.769C241.577 217.978 241.109 218.746 240.365 219.334C239.633 219.922 238.733 220.216 237.665 220.216ZM248.035 220.216C247.159 220.216 246.385 220.012 245.713 219.604C245.041 219.196 244.519 218.62 244.147 217.876C243.775 217.132 243.589 216.262 243.589 215.266C243.589 214.258 243.775 213.388 244.147 212.656C244.531 211.912 245.059 211.336 245.731 210.928C246.415 210.52 247.195 210.316 248.071 210.316C248.959 210.316 249.733 210.52 250.393 210.928C251.065 211.336 251.587 211.912 251.959 212.656C252.331 213.388 252.517 214.258 252.517 215.266C252.517 216.262 252.325 217.132 251.941 217.876C251.569 218.62 251.047 219.196 250.375 219.604C249.703 220.012 248.923 220.216 248.035 220.216ZM248.035 218.92C248.587 218.92 249.085 218.788 249.529 218.524C249.973 218.248 250.321 217.84 250.573 217.3C250.837 216.748 250.969 216.07 250.969 215.266C250.969 214.45 250.843 213.772 250.591 213.232C250.339 212.692 249.991 212.29 249.547 212.026C249.115 211.75 248.623 211.612 248.071 211.612C247.531 211.612 247.039 211.75 246.595 212.026C246.151 212.29 245.797 212.692 245.533 213.232C245.269 213.772 245.137 214.45 245.137 215.266C245.137 216.07 245.263 216.748 245.515 217.3C245.779 217.84 246.127 218.248 246.559 218.524C247.003 218.788 247.495 218.92 248.035 218.92ZM254.708 220V207.04H256.22V220H254.708ZM262.188 220.216C261.336 220.216 260.628 220.09 260.064 219.838C259.512 219.574 259.092 219.214 258.804 218.758C258.516 218.29 258.342 217.75 258.282 217.138H259.83C259.878 217.462 259.986 217.762 260.154 218.038C260.334 218.302 260.592 218.518 260.928 218.686C261.264 218.854 261.69 218.938 262.206 218.938C262.614 218.938 262.962 218.878 263.25 218.758C263.538 218.626 263.754 218.446 263.898 218.218C264.054 217.99 264.132 217.726 264.132 217.426C264.132 217.03 264.042 216.724 263.862 216.508C263.694 216.28 263.442 216.112 263.106 216.004C262.782 215.884 262.374 215.794 261.882 215.734C261.354 215.662 260.886 215.56 260.478 215.428C260.07 215.296 259.722 215.122 259.434 214.906C259.158 214.69 258.948 214.42 258.804 214.096C258.66 213.772 258.588 213.388 258.588 212.944C258.588 212.428 258.726 211.972 259.002 211.576C259.278 211.18 259.668 210.874 260.172 210.658C260.688 210.43 261.294 210.316 261.99 210.316C263.01 210.316 263.814 210.55 264.402 211.018C265.002 211.486 265.356 212.152 265.464 213.016H263.97C263.91 212.572 263.706 212.224 263.358 211.972C263.01 211.72 262.548 211.594 261.972 211.594C261.36 211.594 260.898 211.708 260.586 211.936C260.274 212.164 260.118 212.464 260.118 212.836C260.118 213.112 260.184 213.364 260.316 213.592C260.46 213.808 260.7 213.994 261.036 214.15C261.372 214.294 261.822 214.402 262.386 214.474C263.094 214.558 263.694 214.696 264.186 214.888C264.678 215.068 265.05 215.35 265.302 215.734C265.566 216.118 265.692 216.64 265.68 217.3C265.68 217.924 265.53 218.452 265.23 218.884C264.942 219.316 264.534 219.646 264.006 219.874C263.49 220.102 262.884 220.216 262.188 220.216ZM271.832 220.09C271.544 220.09 271.298 219.994 271.094 219.802C270.902 219.598 270.806 219.352 270.806 219.064C270.806 218.776 270.902 218.536 271.094 218.344C271.298 218.14 271.544 218.038 271.832 218.038C272.144 218.038 272.39 218.14 272.57 218.344C272.762 218.536 272.858 218.776 272.858 219.064C272.858 219.352 272.762 219.598 272.57 219.802C272.39 219.994 272.144 220.09 271.832 220.09ZM275.144 220.09C274.856 220.09 274.61 219.994 274.406 219.802C274.214 219.598 274.118 219.352 274.118 219.064C274.118 218.776 274.214 218.536 274.406 218.344C274.61 218.14 274.856 218.038 275.144 218.038C275.456 218.038 275.702 218.14 275.882 218.344C276.074 218.536 276.17 218.776 276.17 219.064C276.17 219.352 276.074 219.598 275.882 219.802C275.702 219.994 275.456 220.09 275.144 220.09ZM268.52 220.09C268.232 220.09 267.986 219.994 267.782 219.802C267.59 219.598 267.494 219.352 267.494 219.064C267.494 218.776 267.59 218.536 267.782 218.344C267.986 218.14 268.232 218.038 268.52 218.038C268.832 218.038 269.078 218.14 269.258 218.344C269.45 218.536 269.546 218.776 269.546 219.064C269.546 219.352 269.45 219.598 269.258 219.802C269.078 219.994 268.832 220.09 268.52 220.09Z" fill="white" fill-opacity="0.4"/>
<path d="M28.8604 245.82L31.2917 251.642L34.7158 247.97C35.4134 247.222 35.1581 246.008 34.2182 245.604L29.1062 243.409C28.3344 243.077 27.4419 243.455 27.1425 244.24L26.0581 247.083L28.8604 245.82Z" fill="#FA4C15" stroke="#FA4C15" stroke-width="0.211086"/>
<path d="M37.6244 249.572L32.8391 253.683L37.3897 255.805C38.3168 256.237 39.3921 255.62 39.4854 254.601L39.9937 249.061C40.0706 248.224 39.4356 247.492 38.5967 247.45L35.558 247.297L37.6244 249.572Z" fill="#FA4C15" stroke="#FA4C15" stroke-width="0.211086"/>
<path d="M36.7648 259.066L31.376 255.786L30.7643 260.769C30.6397 261.785 31.5595 262.616 32.5572 262.39L37.9834 261.162C38.8026 260.976 39.3026 260.146 39.0835 259.335L38.29 256.398L36.7648 259.066Z" fill="#FA4C15" stroke="#FA4C15" stroke-width="0.211086"/>
<path d="M27.4694 261.183L28.9242 255.044L23.9956 256.002C22.9915 256.197 22.4847 257.329 23.0078 258.208L25.8531 262.989C26.2827 263.711 27.2267 263.93 27.9302 263.471L30.4784 261.809L27.4694 261.183Z" fill="#FA4C15" stroke="#FA4C15" stroke-width="0.211086"/>
<path d="M22.5841 252.996L28.872 252.483L26.4377 248.092C25.9417 247.197 24.7087 247.065 24.0343 247.834L20.3666 252.017C19.8129 252.649 19.8963 253.614 20.5501 254.142L22.9186 256.051L22.5841 252.996Z" fill="#FA4C15" stroke="#FA4C15" stroke-width="0.211086"/>
<path d="M66.786 260.216C65.61 260.216 64.578 259.946 63.69 259.406C62.802 258.854 62.112 258.092 61.62 257.12C61.128 256.148 60.882 255.014 60.882 253.718C60.882 252.434 61.128 251.3 61.62 250.316C62.124 249.332 62.832 248.564 63.744 248.012C64.668 247.46 65.754 247.184 67.002 247.184C68.418 247.184 69.6 247.526 70.548 248.21C71.496 248.882 72.102 249.824 72.366 251.036H70.62C70.452 250.28 70.056 249.68 69.432 249.236C68.808 248.792 67.998 248.57 67.002 248.57C66.078 248.57 65.268 248.78 64.572 249.2C63.888 249.608 63.36 250.196 62.988 250.964C62.616 251.732 62.43 252.65 62.43 253.718C62.43 254.786 62.616 255.71 62.988 256.49C63.36 257.258 63.876 257.846 64.536 258.254C65.208 258.662 65.976 258.866 66.84 258.866C68.184 258.866 69.198 258.47 69.882 257.678C70.566 256.886 70.956 255.812 71.052 254.456H67.416V253.268H72.6V260H71.214L71.088 257.93C70.788 258.422 70.44 258.842 70.044 259.19C69.66 259.526 69.204 259.784 68.676 259.964C68.148 260.132 67.518 260.216 66.786 260.216ZM78.9129 260.216C78.0729 260.216 77.3289 260.012 76.6809 259.604C76.0329 259.196 75.5229 258.62 75.1509 257.876C74.7909 257.132 74.6109 256.262 74.6109 255.266C74.6109 254.27 74.7909 253.4 75.1509 252.656C75.5229 251.912 76.0329 251.336 76.6809 250.928C77.3409 250.52 78.0969 250.316 78.9489 250.316C79.8609 250.316 80.6229 250.52 81.2349 250.928C81.8469 251.336 82.3089 251.882 82.6209 252.566C82.9329 253.25 83.0889 254 83.0889 254.816C83.0889 254.936 83.0889 255.056 83.0889 255.176C83.0889 255.296 83.0829 255.44 83.0709 255.608H75.7449V254.438H81.6129C81.5889 253.514 81.3189 252.812 80.8029 252.332C80.2989 251.84 79.6689 251.594 78.9129 251.594C78.4089 251.594 77.9409 251.72 77.5089 251.972C77.0889 252.212 76.7469 252.572 76.4829 253.052C76.2189 253.532 76.0869 254.132 76.0869 254.852V255.356C76.0869 256.148 76.2189 256.814 76.4829 257.354C76.7469 257.882 77.0889 258.278 77.5089 258.542C77.9409 258.806 78.4089 258.938 78.9129 258.938C79.5849 258.938 80.1129 258.812 80.4969 258.56C80.8809 258.296 81.1629 257.924 81.3429 257.444H82.8369C82.6929 257.972 82.4409 258.446 82.0809 258.866C81.7329 259.286 81.2889 259.616 80.7489 259.856C80.2209 260.096 79.6089 260.216 78.9129 260.216ZM85.1843 260V250.532H86.5522L86.6243 252.026C86.9003 251.486 87.2963 251.066 87.8123 250.766C88.3403 250.466 88.9463 250.316 89.6303 250.316C90.3263 250.316 90.9323 250.448 91.4483 250.712C91.9643 250.976 92.3663 251.378 92.6543 251.918C92.9423 252.458 93.0863 253.142 93.0863 253.97V260H91.5743V254.132C91.5743 253.292 91.3643 252.662 90.9443 252.242C90.5363 251.822 89.9843 251.612 89.2883 251.612C88.8203 251.612 88.3883 251.726 87.9923 251.954C87.5963 252.17 87.2783 252.494 87.0383 252.926C86.8103 253.358 86.6963 253.886 86.6963 254.51V260H85.1843ZM99.5145 260.216C98.6745 260.216 97.9305 260.012 97.2825 259.604C96.6345 259.196 96.1245 258.62 95.7525 257.876C95.3925 257.132 95.2125 256.262 95.2125 255.266C95.2125 254.27 95.3925 253.4 95.7525 252.656C96.1245 251.912 96.6345 251.336 97.2825 250.928C97.9425 250.52 98.6985 250.316 99.5505 250.316C100.463 250.316 101.225 250.52 101.837 250.928C102.449 251.336 102.911 251.882 103.223 252.566C103.535 253.25 103.691 254 103.691 254.816C103.691 254.936 103.691 255.056 103.691 255.176C103.691 255.296 103.685 255.44 103.673 255.608H96.3465V254.438H102.215C102.191 253.514 101.921 252.812 101.405 252.332C100.901 251.84 100.271 251.594 99.5145 251.594C99.0105 251.594 98.5425 251.72 98.1105 251.972C97.6905 252.212 97.3485 252.572 97.0845 253.052C96.8205 253.532 96.6885 254.132 96.6885 254.852V255.356C96.6885 256.148 96.8205 256.814 97.0845 257.354C97.3485 257.882 97.6905 258.278 98.1105 258.542C98.5425 258.806 99.0105 258.938 99.5145 258.938C100.187 258.938 100.715 258.812 101.099 258.56C101.483 258.296 101.765 257.924 101.945 257.444H103.439C103.295 257.972 103.043 258.446 102.683 258.866C102.335 259.286 101.891 259.616 101.351 259.856C100.823 260.096 100.211 260.216 99.5145 260.216ZM105.786 260V250.532H107.154L107.262 252.26C107.478 251.828 107.76 251.468 108.108 251.18C108.456 250.892 108.876 250.676 109.368 250.532C109.872 250.388 110.436 250.316 111.06 250.316V251.9H110.124C109.764 251.9 109.416 251.948 109.08 252.044C108.744 252.14 108.438 252.296 108.162 252.512C107.898 252.728 107.688 253.022 107.532 253.394C107.376 253.766 107.298 254.234 107.298 254.798V260H105.786ZM115.751 260.216C115.031 260.216 114.431 260.084 113.951 259.82C113.471 259.544 113.111 259.184 112.871 258.74C112.631 258.284 112.511 257.798 112.511 257.282C112.511 256.658 112.667 256.13 112.979 255.698C113.303 255.254 113.753 254.918 114.329 254.69C114.905 254.462 115.577 254.348 116.345 254.348H118.703C118.703 253.736 118.631 253.226 118.487 252.818C118.343 252.41 118.109 252.104 117.785 251.9C117.461 251.696 117.029 251.594 116.489 251.594C115.949 251.594 115.487 251.732 115.103 252.008C114.719 252.272 114.479 252.668 114.383 253.196H112.835C112.907 252.572 113.117 252.05 113.465 251.63C113.813 251.198 114.251 250.874 114.779 250.658C115.319 250.43 115.889 250.316 116.489 250.316C117.341 250.316 118.043 250.472 118.595 250.784C119.147 251.084 119.555 251.51 119.819 252.062C120.083 252.602 120.215 253.244 120.215 253.988V260H118.865L118.775 258.38C118.655 258.632 118.499 258.872 118.307 259.1C118.127 259.316 117.911 259.508 117.659 259.676C117.407 259.844 117.119 259.976 116.795 260.072C116.483 260.168 116.135 260.216 115.751 260.216ZM115.967 258.938C116.363 258.938 116.729 258.848 117.065 258.668C117.401 258.488 117.689 258.248 117.929 257.948C118.181 257.636 118.373 257.288 118.505 256.904C118.637 256.52 118.703 256.118 118.703 255.698V255.518H116.471C115.907 255.518 115.445 255.59 115.085 255.734C114.737 255.878 114.485 256.082 114.329 256.346C114.173 256.598 114.095 256.886 114.095 257.21C114.095 257.558 114.167 257.864 114.311 258.128C114.455 258.38 114.665 258.578 114.941 258.722C115.229 258.866 115.571 258.938 115.967 258.938ZM126.139 260C125.599 260 125.131 259.916 124.735 259.748C124.339 259.58 124.033 259.298 123.817 258.902C123.613 258.494 123.511 257.948 123.511 257.264V251.81H121.855V250.532H123.511L123.709 248.174H125.023V250.532H127.705V251.81H125.023V257.264C125.023 257.828 125.137 258.212 125.365 258.416C125.593 258.608 125.995 258.704 126.571 258.704H127.669V260H126.139ZM129.924 260V250.532H131.436V260H129.924ZM130.68 248.732C130.38 248.732 130.128 248.636 129.924 248.444C129.732 248.24 129.636 247.988 129.636 247.688C129.636 247.388 129.732 247.148 129.924 246.968C130.128 246.776 130.38 246.68 130.68 246.68C130.968 246.68 131.214 246.776 131.418 246.968C131.622 247.148 131.724 247.388 131.724 247.688C131.724 247.988 131.622 248.24 131.418 248.444C131.214 248.636 130.968 248.732 130.68 248.732ZM134.122 260V250.532H135.49L135.562 252.026C135.838 251.486 136.234 251.066 136.75 250.766C137.278 250.466 137.884 250.316 138.568 250.316C139.264 250.316 139.87 250.448 140.386 250.712C140.902 250.976 141.304 251.378 141.592 251.918C141.88 252.458 142.024 253.142 142.024 253.97V260H140.512V254.132C140.512 253.292 140.302 252.662 139.882 252.242C139.474 251.822 138.922 251.612 138.226 251.612C137.758 251.612 137.326 251.726 136.93 251.954C136.534 252.17 136.216 252.494 135.976 252.926C135.748 253.358 135.634 253.886 135.634 254.51V260H134.122ZM148.236 264.176C147.384 264.176 146.634 264.068 145.986 263.852C145.35 263.648 144.852 263.33 144.492 262.898C144.144 262.466 143.97 261.932 143.97 261.296C143.97 260.996 144.024 260.684 144.132 260.36C144.252 260.036 144.45 259.724 144.726 259.424C145.014 259.124 145.416 258.854 145.932 258.614L147.084 259.226C146.4 259.49 145.956 259.796 145.752 260.144C145.548 260.492 145.446 260.828 145.446 261.152C145.446 261.548 145.56 261.878 145.788 262.142C146.028 262.406 146.358 262.604 146.778 262.736C147.198 262.868 147.684 262.934 148.236 262.934C148.776 262.934 149.238 262.862 149.622 262.718C150.018 262.586 150.318 262.388 150.522 262.124C150.738 261.872 150.846 261.572 150.846 261.224C150.846 260.72 150.684 260.324 150.36 260.036C150.036 259.76 149.406 259.598 148.47 259.55C147.738 259.502 147.126 259.436 146.634 259.352C146.142 259.268 145.734 259.172 145.41 259.064C145.098 258.944 144.834 258.812 144.618 258.668C144.414 258.524 144.228 258.374 144.06 258.218V257.804L145.842 256.094L147.264 256.562L145.32 258.164L145.554 257.48C145.686 257.576 145.812 257.666 145.932 257.75C146.052 257.834 146.214 257.912 146.418 257.984C146.634 258.044 146.928 258.104 147.3 258.164C147.684 258.224 148.188 258.278 148.812 258.326C149.676 258.386 150.366 258.53 150.882 258.758C151.398 258.986 151.77 259.304 151.998 259.712C152.226 260.108 152.34 260.594 152.34 261.17C152.34 261.674 152.196 262.154 151.908 262.61C151.632 263.066 151.188 263.438 150.576 263.726C149.976 264.026 149.196 264.176 148.236 264.176ZM148.218 257.048C147.45 257.048 146.796 256.904 146.256 256.616C145.728 256.316 145.326 255.914 145.05 255.41C144.774 254.894 144.636 254.318 144.636 253.682C144.636 253.046 144.774 252.476 145.05 251.972C145.338 251.468 145.746 251.066 146.274 250.766C146.814 250.466 147.462 250.316 148.218 250.316C148.998 250.316 149.652 250.466 150.18 250.766C150.708 251.066 151.11 251.468 151.386 251.972C151.662 252.476 151.8 253.046 151.8 253.682C151.8 254.318 151.662 254.894 151.386 255.41C151.11 255.914 150.708 256.316 150.18 256.616C149.652 256.904 148.998 257.048 148.218 257.048ZM148.218 255.806C148.89 255.806 149.412 255.632 149.784 255.284C150.156 254.924 150.342 254.39 150.342 253.682C150.342 252.974 150.156 252.446 149.784 252.098C149.412 251.75 148.89 251.576 148.218 251.576C147.582 251.576 147.06 251.75 146.652 252.098C146.256 252.446 146.058 252.974 146.058 253.682C146.058 254.39 146.25 254.924 146.634 255.284C147.03 255.632 147.558 255.806 148.218 255.806ZM149.802 251.81L149.352 250.532H153.06V251.666L149.802 251.81ZM163.136 260.216C162.284 260.216 161.576 260.09 161.012 259.838C160.46 259.574 160.04 259.214 159.752 258.758C159.464 258.29 159.29 257.75 159.23 257.138H160.778C160.826 257.462 160.934 257.762 161.102 258.038C161.282 258.302 161.54 258.518 161.876 258.686C162.212 258.854 162.638 258.938 163.154 258.938C163.562 258.938 163.91 258.878 164.198 258.758C164.486 258.626 164.702 258.446 164.846 258.218C165.002 257.99 165.08 257.726 165.08 257.426C165.08 257.03 164.99 256.724 164.81 256.508C164.642 256.28 164.39 256.112 164.054 256.004C163.73 255.884 163.322 255.794 162.83 255.734C162.302 255.662 161.834 255.56 161.426 255.428C161.018 255.296 160.67 255.122 160.382 254.906C160.106 254.69 159.896 254.42 159.752 254.096C159.608 253.772 159.536 253.388 159.536 252.944C159.536 252.428 159.674 251.972 159.95 251.576C160.226 251.18 160.616 250.874 161.12 250.658C161.636 250.43 162.242 250.316 162.938 250.316C163.958 250.316 164.762 250.55 165.35 251.018C165.95 251.486 166.304 252.152 166.412 253.016H164.918C164.858 252.572 164.654 252.224 164.306 251.972C163.958 251.72 163.496 251.594 162.92 251.594C162.308 251.594 161.846 251.708 161.534 251.936C161.222 252.164 161.066 252.464 161.066 252.836C161.066 253.112 161.132 253.364 161.264 253.592C161.408 253.808 161.648 253.994 161.984 254.15C162.32 254.294 162.77 254.402 163.334 254.474C164.042 254.558 164.642 254.696 165.134 254.888C165.626 255.068 165.998 255.35 166.25 255.734C166.514 256.118 166.64 256.64 166.628 257.3C166.628 257.924 166.478 258.452 166.178 258.884C165.89 259.316 165.482 259.646 164.954 259.874C164.438 260.102 163.832 260.216 163.136 260.216ZM172.141 260C171.601 260 171.133 259.916 170.737 259.748C170.341 259.58 170.035 259.298 169.819 258.902C169.615 258.494 169.513 257.948 169.513 257.264V251.81H167.857V250.532H169.513L169.711 248.174H171.025V250.532H173.707V251.81H171.025V257.264C171.025 257.828 171.139 258.212 171.367 258.416C171.595 258.608 171.997 258.704 172.573 258.704H173.671V260H172.141ZM175.782 260V250.532H177.15L177.258 252.26C177.474 251.828 177.756 251.468 178.104 251.18C178.452 250.892 178.872 250.676 179.364 250.532C179.868 250.388 180.432 250.316 181.056 250.316V251.9H180.12C179.76 251.9 179.412 251.948 179.076 252.044C178.74 252.14 178.434 252.296 178.158 252.512C177.894 252.728 177.684 253.022 177.528 253.394C177.372 253.766 177.294 254.234 177.294 254.798V260H175.782ZM185.748 260.216C185.028 260.216 184.428 260.084 183.948 259.82C183.468 259.544 183.108 259.184 182.868 258.74C182.628 258.284 182.508 257.798 182.508 257.282C182.508 256.658 182.664 256.13 182.976 255.698C183.3 255.254 183.75 254.918 184.326 254.69C184.902 254.462 185.574 254.348 186.342 254.348H188.7C188.7 253.736 188.628 253.226 188.484 252.818C188.34 252.41 188.106 252.104 187.782 251.9C187.458 251.696 187.026 251.594 186.486 251.594C185.946 251.594 185.484 251.732 185.1 252.008C184.716 252.272 184.476 252.668 184.38 253.196H182.832C182.904 252.572 183.114 252.05 183.462 251.63C183.81 251.198 184.248 250.874 184.776 250.658C185.316 250.43 185.886 250.316 186.486 250.316C187.338 250.316 188.04 250.472 188.592 250.784C189.144 251.084 189.552 251.51 189.816 252.062C190.08 252.602 190.212 253.244 190.212 253.988V260H188.862L188.772 258.38C188.652 258.632 188.496 258.872 188.304 259.1C188.124 259.316 187.908 259.508 187.656 259.676C187.404 259.844 187.116 259.976 186.792 260.072C186.48 260.168 186.132 260.216 185.748 260.216ZM185.964 258.938C186.36 258.938 186.726 258.848 187.062 258.668C187.398 258.488 187.686 258.248 187.926 257.948C188.178 257.636 188.37 257.288 188.502 256.904C188.634 256.52 188.7 256.118 188.7 255.698V255.518H186.468C185.904 255.518 185.442 255.59 185.082 255.734C184.734 255.878 184.482 256.082 184.326 256.346C184.17 256.598 184.092 256.886 184.092 257.21C184.092 257.558 184.164 257.864 184.308 258.128C184.452 258.38 184.662 258.578 184.938 258.722C185.226 258.866 185.568 258.938 185.964 258.938ZM196.136 260C195.596 260 195.128 259.916 194.732 259.748C194.336 259.58 194.03 259.298 193.814 258.902C193.61 258.494 193.508 257.948 193.508 257.264V251.81H191.852V250.532H193.508L193.706 248.174H195.02V250.532H197.702V251.81H195.02V257.264C195.02 257.828 195.134 258.212 195.362 258.416C195.59 258.608 195.992 258.704 196.568 258.704H197.666V260H196.136ZM203.454 260.216C202.614 260.216 201.87 260.012 201.222 259.604C200.574 259.196 200.064 258.62 199.692 257.876C199.332 257.132 199.152 256.262 199.152 255.266C199.152 254.27 199.332 253.4 199.692 252.656C200.064 251.912 200.574 251.336 201.222 250.928C201.882 250.52 202.638 250.316 203.49 250.316C204.402 250.316 205.164 250.52 205.776 250.928C206.388 251.336 206.85 251.882 207.162 252.566C207.474 253.25 207.63 254 207.63 254.816C207.63 254.936 207.63 255.056 207.63 255.176C207.63 255.296 207.624 255.44 207.612 255.608H200.286V254.438H206.154C206.13 253.514 205.86 252.812 205.344 252.332C204.84 251.84 204.21 251.594 203.454 251.594C202.95 251.594 202.482 251.72 202.05 251.972C201.63 252.212 201.288 252.572 201.024 253.052C200.76 253.532 200.628 254.132 200.628 254.852V255.356C200.628 256.148 200.76 256.814 201.024 257.354C201.288 257.882 201.63 258.278 202.05 258.542C202.482 258.806 202.95 258.938 203.454 258.938C204.126 258.938 204.654 258.812 205.038 258.56C205.422 258.296 205.704 257.924 205.884 257.444H207.378C207.234 257.972 206.982 258.446 206.622 258.866C206.274 259.286 205.83 259.616 205.29 259.856C204.762 260.096 204.15 260.216 203.454 260.216ZM213.381 264.176C212.529 264.176 211.779 264.068 211.131 263.852C210.495 263.648 209.997 263.33 209.637 262.898C209.289 262.466 209.115 261.932 209.115 261.296C209.115 260.996 209.169 260.684 209.277 260.36C209.397 260.036 209.595 259.724 209.871 259.424C210.159 259.124 210.561 258.854 211.077 258.614L212.229 259.226C211.545 259.49 211.101 259.796 210.897 260.144C210.693 260.492 210.591 260.828 210.591 261.152C210.591 261.548 210.705 261.878 210.933 262.142C211.173 262.406 211.503 262.604 211.923 262.736C212.343 262.868 212.829 262.934 213.381 262.934C213.921 262.934 214.383 262.862 214.767 262.718C215.163 262.586 215.463 262.388 215.667 262.124C215.883 261.872 215.991 261.572 215.991 261.224C215.991 260.72 215.829 260.324 215.505 260.036C215.181 259.76 214.551 259.598 213.615 259.55C212.883 259.502 212.271 259.436 211.779 259.352C211.287 259.268 210.879 259.172 210.555 259.064C210.243 258.944 209.979 258.812 209.763 258.668C209.559 258.524 209.373 258.374 209.205 258.218V257.804L210.987 256.094L212.409 256.562L210.465 258.164L210.699 257.48C210.831 257.576 210.957 257.666 211.077 257.75C211.197 257.834 211.359 257.912 211.563 257.984C211.779 258.044 212.073 258.104 212.445 258.164C212.829 258.224 213.333 258.278 213.957 258.326C214.821 258.386 215.511 258.53 216.027 258.758C216.543 258.986 216.915 259.304 217.143 259.712C217.371 260.108 217.485 260.594 217.485 261.17C217.485 261.674 217.341 262.154 217.053 262.61C216.777 263.066 216.333 263.438 215.721 263.726C215.121 264.026 214.341 264.176 213.381 264.176ZM213.363 257.048C212.595 257.048 211.941 256.904 211.401 256.616C210.873 256.316 210.471 255.914 210.195 255.41C209.919 254.894 209.781 254.318 209.781 253.682C209.781 253.046 209.919 252.476 210.195 251.972C210.483 251.468 210.891 251.066 211.419 250.766C211.959 250.466 212.607 250.316 213.363 250.316C214.143 250.316 214.797 250.466 215.325 250.766C215.853 251.066 216.255 251.468 216.531 251.972C216.807 252.476 216.945 253.046 216.945 253.682C216.945 254.318 216.807 254.894 216.531 255.41C216.255 255.914 215.853 256.316 215.325 256.616C214.797 256.904 214.143 257.048 213.363 257.048ZM213.363 255.806C214.035 255.806 214.557 255.632 214.929 255.284C215.301 254.924 215.487 254.39 215.487 253.682C215.487 252.974 215.301 252.446 214.929 252.098C214.557 251.75 214.035 251.576 213.363 251.576C212.727 251.576 212.205 251.75 211.797 252.098C211.401 252.446 211.203 252.974 211.203 253.682C211.203 254.39 211.395 254.924 211.779 255.284C212.175 255.632 212.703 255.806 213.363 255.806ZM214.947 251.81L214.497 250.532H218.205V251.666L214.947 251.81ZM221.088 263.96L223.23 258.992H222.708L219.162 250.532H220.8L223.734 257.822L226.794 250.532H228.36L222.654 263.96H221.088ZM232.668 260.09C232.38 260.09 232.134 259.994 231.93 259.802C231.738 259.598 231.642 259.352 231.642 259.064C231.642 258.776 231.738 258.536 231.93 258.344C232.134 258.14 232.38 258.038 232.668 258.038C232.98 258.038 233.226 258.14 233.406 258.344C233.598 258.536 233.694 258.776 233.694 259.064C233.694 259.352 233.598 259.598 233.406 259.802C233.226 259.994 232.98 260.09 232.668 260.09ZM235.98 260.09C235.692 260.09 235.446 259.994 235.242 259.802C235.05 259.598 234.954 259.352 234.954 259.064C234.954 258.776 235.05 258.536 235.242 258.344C235.446 258.14 235.692 258.038 235.98 258.038C236.292 258.038 236.538 258.14 236.718 258.344C236.91 258.536 237.006 258.776 237.006 259.064C237.006 259.352 236.91 259.598 236.718 259.802C236.538 259.994 236.292 260.09 235.98 260.09ZM229.356 260.09C229.068 260.09 228.822 259.994 228.618 259.802C228.426 259.598 228.33 259.352 228.33 259.064C228.33 258.776 228.426 258.536 228.618 258.344C228.822 258.14 229.068 258.038 229.356 258.038C229.668 258.038 229.914 258.14 230.094 258.344C230.286 258.536 230.382 258.776 230.382 259.064C230.382 259.352 230.286 259.598 230.094 259.802C229.914 259.994 229.668 260.09 229.356 260.09Z" fill="white" fill-opacity="0.4"/>
</svg>
