<svg width="532" height="524" viewBox="0 0 532 524" fill="none" xmlns="http://www.w3.org/2000/svg">
<path d="M236.029 67.1849L299.971 214.762L390.027 121.671C408.373 102.705 401.659 71.9409 376.94 61.7075L242.493 6.05129C222.195 -2.35125 198.723 7.22388 190.849 27.1184L162.328 99.1819L236.029 67.1849Z" fill="#FA4C15" stroke="#FA4C15" stroke-width="5.55156"/>
<path d="M466.52 162.293L340.667 266.514L460.347 320.302C484.73 331.26 513.012 315.598 515.466 289.775L528.834 149.327C530.855 128.123 514.156 109.564 492.091 108.494L412.174 104.617L466.52 162.293Z" fill="#FA4C15" stroke="#FA4C15" stroke-width="5.55156"/>
<path d="M443.908 402.977L302.185 319.812L286.096 446.146C282.818 471.884 307.01 492.969 333.249 487.243L475.959 456.097C497.504 451.395 510.654 430.35 504.892 409.794L484.021 335.335L443.908 402.977Z" fill="#FA4C15" stroke="#FA4C15" stroke-width="5.55156"/>
<path d="M199.439 456.623L237.702 301.003L108.079 325.294C81.6702 330.242 68.342 358.936 82.1004 381.22L156.931 502.421C168.229 520.716 193.057 526.27 211.558 514.637L278.577 472.493L199.439 456.623Z" fill="#FA4C15" stroke="#FA4C15" stroke-width="5.55156"/>
<path d="M70.9632 249.092L236.334 236.079L172.311 124.757C159.268 102.077 126.839 98.726 109.103 118.224L12.6412 224.276C-1.92175 240.286 0.272392 264.763 17.4689 278.129L79.7596 326.543L70.9632 249.092Z" fill="#FA4C15" stroke="#FA4C15" stroke-width="5.55156"/>
</svg>
